<svg aria-hidden="true" style="width:0;height:0;position:absolute;overflow:hidden" xmlns="http://www.w3.org/2000/svg"><defs><symbol id="phone" viewBox="0 0 32 32"><path d="M22 20c-2 2-2 4-4 4s-4-2-6-4-4-4-4-6 2-2 4-4-4-8-6-8-6 6-6 6c0 4 4.109 12.109 8 16s12 8 16 8c0 0 6-4 6-6s-6-8-8-6z"/></symbol><symbol id="line-2" viewBox="0 0 185 32"><path stroke-linejoin="round" stroke-linecap="round" stroke-width="14.222" d="M7.111 24.889 28.444 7.111l21.333 17.778L71.11 7.111l21.333 17.778 21.333-17.778 21.333 17.778 21.333-17.778 21.333 17.778"/></symbol><symbol id="legs" viewBox="0 0 32 32"><path d="M0 0h32v32H0V0z"/><path d="M2.991 12.145c-.65 2.861 4.626 13.807 10.273 11.313 2.081-1.04 1.821-3.511 1.821-3.511-.26-2.081-1.803-1.98-2.211-4.291s1.425-6.103-2.991-7.802c-2.825-1.088-5.994.68-6.892 4.291z"/><path fill="var(--color2, #000)" d="M29.009 17.862c.65 2.861-4.626 13.807-10.273 11.313-2.081-1.04-1.821-3.511-1.821-3.511.26-2.081 1.803-1.98 2.211-4.291s-1.425-6.103 2.991-7.802c2.825-1.088 5.994.68 6.892 4.291zM12.485 4.904c-.079 1.186-.921 2.095-1.88 2.031S8.932 5.858 9.011 4.673c.079-1.186.921-2.095 1.88-2.031s1.673 1.077 1.594 2.262zM19.515 10.621c.079 1.186.921 2.095 1.88 2.031s1.673-1.077 1.594-2.262c-.079-1.186-.921-2.095-1.88-2.031s-1.673 1.077-1.594 2.262zM8.174 5.08c.096.867-.395 1.632-1.096 1.709S5.731 6.227 5.635 5.36c-.096-.867.395-1.632 1.096-1.709s1.347.562 1.443 1.429zM23.826 10.798c-.096.867.395 1.632 1.096 1.709s1.347-.562 1.443-1.429c.096-.867-.395-1.632-1.096-1.709s-1.347.562-1.443 1.429zM5.061 6.09c.28.587.122 1.247-.353 1.473s-1.087-.066-1.367-.653-.122-1.247.353-1.473 1.087.066 1.367.653zM26.939 11.807c-.28.587-.122 1.247.353 1.473s1.087-.066 1.367-.653.122-1.247-.353-1.473-1.087.066-1.367.653zM2.661 7.752c.466.314.638.874.384 1.251s-.837.428-1.303.114c-.466-.314-.638-.874-.384-1.251s.837-.428 1.303-.114zM29.339 13.469c-.466.314-.638.874-.384 1.251s.837.428 1.303.114c.466-.314.638-.874.384-1.251s-.837-.428-1.303-.114zM1.207 10.26c.492.108.82.518.732.916s-.557.633-1.049.525c-.492-.108-.82-.518-.732-.916s.557-.633 1.049-.525zM30.793 15.977c-.492.108-.82.518-.732.916s.557.633 1.049.525c.492-.108.82-.518.732-.916s-.557-.633-1.049-.525z"/></symbol><symbol id="plus" viewBox="0 0 32 32"><path d="M31 12H20V1a1 1 0 0 0-1-1h-6a1 1 0 0 0-1 1v11H1a1 1 0 0 0-1 1v6a1 1 0 0 0 1 1h11v11a1 1 0 0 0 1 1h6a1 1 0 0 0 1-1V20h11a1 1 0 0 0 1-1v-6a1 1 0 0 0-1-1z"/></symbol><symbol id="icon-arrow-right" viewBox="0 0 32 32"><path d="m19.414 27.414 10-10a2 2 0 0 0 0-2.828l-10-10a2 2 0 1 0-2.828 2.828L23.172 14H4a2 2 0 1 0 0 4h19.172l-6.586 6.586c-.39.39-.586.902-.586 1.414s.195 1.024.586 1.414a2 2 0 0 0 2.828 0z"/></symbol><symbol id="icon-arrow-left" viewBox="0 0 32 32"><path d="m12.586 27.414-10-10a2 2 0 0 1 0-2.828l10-10a2 2 0 1 1 2.828 2.828L8.828 14H28a2 2 0 1 1 0 4H8.828l6.586 6.586c.39.39.586.902.586 1.414s-.195 1.024-.586 1.414a2 2 0 0 1-2.828 0z"/></symbol><symbol id="instagram" viewBox="0 0 32 32"><path d="M31.969 9.408c-.075-1.7-.35-2.869-.744-3.882a7.803 7.803 0 0 0-1.85-2.838A7.867 7.867 0 0 0 26.543.844C25.524.45 24.361.175 22.661.1 20.948.019 20.404 0 16.06 0s-4.888.019-6.595.094c-1.7.075-2.869.35-3.882.744a7.803 7.803 0 0 0-2.838 1.85A7.867 7.867 0 0 0 .901 5.52C.507 6.539.232 7.702.157 9.402c-.081 1.713-.1 2.257-.1 6.601s.019 4.888.094 6.595c.075 1.7.35 2.869.744 3.882a7.895 7.895 0 0 0 1.85 2.838 7.867 7.867 0 0 0 2.832 1.844c1.019.394 2.182.669 3.882.744 1.706.075 2.25.094 6.595.094s4.888-.019 6.595-.094c1.7-.075 2.869-.35 3.882-.744a8.184 8.184 0 0 0 4.682-4.682c.394-1.019.669-2.182.744-3.882.075-1.707.094-2.251.094-6.595s-.006-4.888-.081-6.595zm-2.882 13.065c-.069 1.563-.331 2.407-.55 2.969a5.31 5.31 0 0 1-3.038 3.038c-.563.219-1.413.481-2.969.55-1.688.075-2.194.094-6.464.094s-4.782-.019-6.464-.094c-1.563-.069-2.407-.331-2.969-.55a4.926 4.926 0 0 1-1.838-1.194 4.974 4.974 0 0 1-1.194-1.838c-.219-.563-.481-1.413-.55-2.969-.075-1.688-.094-2.194-.094-6.464s.019-4.782.094-6.464c.069-1.563.331-2.407.55-2.969a4.868 4.868 0 0 1 1.2-1.838A4.974 4.974 0 0 1 6.639 3.55c.563-.219 1.413-.481 2.969-.55 1.688-.075 2.194-.094 6.464-.094 4.276 0 4.782.019 6.464.094 1.563.069 2.407.331 2.969.55a4.914 4.914 0 0 1 1.838 1.194 4.974 4.974 0 0 1 1.194 1.838c.219.563.481 1.413.55 2.969.075 1.688.094 2.194.094 6.464s-.019 4.77-.094 6.458z"/><path d="M16.059 7.783c-4.538 0-8.22 3.682-8.22 8.22s3.682 8.22 8.22 8.22c4.539 0 8.22-3.682 8.22-8.22s-3.682-8.22-8.22-8.22zm0 13.552a5.333 5.333 0 0 1 0-10.664 5.333 5.333 0 0 1 0 10.664zM26.524 7.458a1.919 1.919 0 1 1-3.838 0 1.919 1.919 0 0 1 3.838 0z"/></symbol><symbol id="facebook" viewBox="0 0 32 32"><path d="M21.329 5.313h2.921V.225C23.746.156 22.013 0 19.994 0c-4.212 0-7.097 2.649-7.097 7.519V12H8.249v5.688h4.648V32h5.699V17.689h4.46l.708-5.688h-5.169V8.082c.001-1.644.444-2.769 2.735-2.769z"/></symbol><symbol id="twitter" viewBox="0 0 32 32"><path d="M32 7.075a12.941 12.941 0 0 1-3.769 1.031 6.601 6.601 0 0 0 2.887-3.631 13.21 13.21 0 0 1-4.169 1.594A6.565 6.565 0 0 0 22.155 4a6.563 6.563 0 0 0-6.563 6.563c0 .512.056 1.012.169 1.494A18.635 18.635 0 0 1 2.23 5.195a6.56 6.56 0 0 0-.887 3.3 6.557 6.557 0 0 0 2.919 5.463 6.565 6.565 0 0 1-2.975-.819v.081a6.565 6.565 0 0 0 5.269 6.437 6.574 6.574 0 0 1-2.968.112 6.588 6.588 0 0 0 6.131 4.563 13.17 13.17 0 0 1-9.725 2.719 18.568 18.568 0 0 0 10.069 2.95c12.075 0 18.681-10.006 18.681-18.681 0-.287-.006-.569-.019-.85A13.216 13.216 0 0 0 32 7.076z"/></symbol><symbol id="youtube" viewBox="0 0 32 32"><path d="M31.681 9.6s-.313-2.206-1.275-3.175C29.187 5.15 27.825 5.144 27.2 5.069c-4.475-.325-11.194-.325-11.194-.325h-.012s-6.719 0-11.194.325c-.625.075-1.987.081-3.206 1.356C.631 7.394.325 9.6.325 9.6s-.319 2.588-.319 5.181v2.425c0 2.587.319 5.181.319 5.181s.313 2.206 1.269 3.175c1.219 1.275 2.819 1.231 3.531 1.369 2.563.244 10.881.319 10.881.319s6.725-.012 11.2-.331c.625-.075 1.988-.081 3.206-1.356.962-.969 1.275-3.175 1.275-3.175s.319-2.587.319-5.181v-2.425c-.006-2.588-.325-5.181-.325-5.181zM12.694 20.15v-8.994l8.644 4.513-8.644 4.481z"/></symbol><symbol id="Frame" viewBox="0 0 41 32"><path fill="#696969" style="fill:var(--color1,#696969)" d="M35.55 9.9a15.846 15.846 0 0 0-3.512-5.213 16.098 16.098 0 0 0-5.35-3.517A16.217 16.217 0 0 0 20.603 0h-.02c-2.094 0-4.138.386-6.069 1.158-1.268.506-2.557 1.162-3.646 1.962a.859.859 0 0 0-.163.153l.057.418 1.496.004a15.067 15.067 0 0 1 8.329-2.5c3.838 0 7.671 1.447 10.59 4.337a14.857 14.857 0 0 1 3.053 4.361l.02.072 1.293-.008.008-.056zM28.232 28.712a14.97 14.97 0 0 1-7.646 2.082h-.02c-3.996-.04-7.752-1.556-10.573-4.353a14.797 14.797 0 0 1-2.955-4.156H5.709a15.946 15.946 0 0 0 3.423 5.004 16.11 16.11 0 0 0 5.35 3.525A16.232 16.232 0 0 0 20.567 32h.02a16.293 16.293 0 0 0 9.809-3.288c-.228-.02-2.008-.02-2.163 0zM18.155 10.174c.11-.028.215-.044.317-.052h-.431c.016.036.024.06.028.068.037-.008.061-.012.085-.016zM30.399 20.773c.138-.169.146-.285.033-.474l-.935-1.58-.756-1.278c.297-.277.679-.297.984-.044.077.064.138.145.203.217a.332.332 0 0 0 .451.052c.138-.1.183-.285.085-.426-.285-.414-.675-.768-1.195-.671-.504-.004-.902.221-1.203.607-.106.137-.114.273-.024.418.256.418.512.836.764 1.258l.695 1.174c.089.153.179.301.268.458-.191.181-.407.261-.663.201-.224-.048-.394-.181-.533-.362a.339.339 0 0 0-.463-.076c-.142.1-.187.301-.085.442.305.43.72.671 1.26.659.467 0 .829-.221 1.114-.575zm-.228-3.308c.008.008.012.016.02.028.02-.016.061-.024.065-.044a.164.164 0 0 0-.012-.108c-.028-.048-.11-.088-.033-.141.069-.048.114.024.15.072.085.113.057.257-.065.322-.037.02-.098.016-.142.008-.024-.004-.049-.052-.045-.08-.008-.02.033-.04.061-.056zm-.292 2.283c.024-.008.069.004.085.024.041.052.069.117.102.177l.26.438c.024.04.041.088.049.113 0 .113-.15.318-.236.342-.02.004-.061-.004-.073-.024-.012-.016-.008-.052 0-.072.012-.024.045-.044.065-.064.106-.105.118-.165.041-.293-.098-.169-.199-.338-.297-.503-.012-.02-.028-.04-.028-.056.008-.028.016-.072.033-.08zm-.126-.104a1.504 1.504 0 0 1-.138-.237c-.012-.024.02-.064.033-.088.085.004.248.281.22.326-.037.04-.081.044-.114 0zM25.578 17.087c-.313-.354-.699-.555-1.187-.527-.459.028-.821.249-1.085.611a.44.44 0 0 0-.085.253c-.012.346-.012.687-.004 1.033 0 .084.037.177.081.245.073.108.171.201.256.301-.085.096-.179.189-.256.289a.382.382 0 0 0-.085.201c-.008.49-.012.985-.004 1.475.004.221.224.362.435.297.142-.044.228-.165.228-.338 0-.41 0-.82.004-1.226 0-.048.028-.108.061-.145a.751.751 0 0 1 .577-.233c.098.004.195.004.293 0a.327.327 0 0 0 .317-.33.331.331 0 0 0-.333-.322 3.878 3.878 0 0 0-.305 0 .739.739 0 0 1-.573-.261.17.17 0 0 1-.037-.101c-.004-.249 0-.498 0-.748 0-.032.008-.068.028-.092a.74.74 0 0 1 .74-.245.83.83 0 0 1 .476.346.335.335 0 0 0 .346.141c.224-.036.354-.273.244-.462-.024-.056-.081-.108-.13-.165zm-1.842 3.911a.337.337 0 0 1-.098.141c-.024.02-.081.004-.122.008a.896.896 0 0 1 .041-.104c.02-.048.049-.097.061-.149s-.004-.113.004-.165c.004-.028.037-.052.057-.08.024.024.057.048.069.076s.004.064.004.1h.008c-.008.06-.004.121-.024.173zm-.049-.43c-.061.008-.069-.048-.065-.096 0-.048 0-.105.065-.097.033.004.057.052.106.097-.049.044-.073.092-.106.096zm1.082-1.455c.037-.004.069-.024.106-.032.028-.004.061.004.093.004-.004.032 0 .08-.02.096-.049.032-.11.052-.179.08-.037-.028-.09-.052-.094-.08-.016-.064.041-.064.094-.068zm.744-1.527c-.037.02-.085.028-.126.02-.028-.008-.061-.048-.069-.08-.004-.016.049-.044.073-.064l.024.028c.02-.016.057-.032.061-.052a.172.172 0 0 0-.016-.1c-.033-.044-.11-.088-.033-.141.069-.048.114.028.15.072.085.108.057.249-.065.318zM27.537 17.268a.324.324 0 0 0-.02-.648 77.75 77.75 0 0 0-1.366-.004.326.326 0 0 0-.317.394c.033.153.167.253.346.257.102.004.207 0 .309 0-.004 1.134-.004 2.247-.008 3.368h-.301c-.207 0-.358.137-.362.326-.004.193.146.334.362.334.431 0 .858.004 1.289.004.207 0 .358-.137.362-.326s-.155-.334-.362-.334h-.305c.004-1.125.004-2.239.008-3.372.13 0 .248.008.366 0zm-.069-.233c.033 0 .065-.028.102-.032.028-.004.073-.004.081.008.012.024.012.072-.004.084-.049.036-.11.06-.183.096-.041-.032-.102-.056-.106-.088-.004-.06.057-.064.11-.068zm.024 4.04c.037-.004.073-.028.114-.036.028-.004.077-.004.081.008.012.024.012.076-.004.088-.053.036-.118.06-.191.092-.041-.032-.089-.052-.093-.08-.012-.064.045-.064.093-.072zm-.541-2.235c0-.048 0-.101.069-.101s.065.052.065.101v1.43c0 .048.004.1-.065.1s-.065-.052-.065-.1c-.004-.478-.004-.953-.004-1.431zm.057 1.808c-.065.004-.061-.056-.061-.1 0-.048.008-.104.073-.092.032.008.053.056.098.108-.049.04-.077.084-.11.084z"/><path fill="#696969" style="fill:var(--color1,#696969)" d="M18.614 10.122a1.746 1.746 0 0 0-.577.052c-.024.004-.049.012-.085.016-.004-.008-.012-.032-.028-.068-.272-.679-2.439-6.045-2.488-6.174l-4.638-.024c.028.217.061.39.093.579.028.169.045.237.089.41.024.084.049.113.142.113.63-.004 1.114 0 1.74 0h.122l-1.915.84c-.049-.104-.106-.213-.142-.326-.057-.177-.118-.35-.154-.531a28.916 28.916 0 0 1-.179-.929 12.366 12.366 0 0 1-.098-.764c-.041-.028-.041-.036-.081-.064-.191.04-.382.072-.569.117a3.142 3.142 0 0 0-.931.406 1.059 1.059 0 0 0-.447.523 5.792 5.792 0 0 0-.26.74c-.053.205-.061.426-.069.639-.028.671-.041 1.347-.069 2.018 0 .04-.033.092-.069.121-.451.39-.874.812-1.268 1.254a18 18 0 0 0-2.073 2.878c-.894 1.511-1.512 3.123-1.923 4.815-.114.47-.183.953-.272 1.427-.016.084.016.117.11.113.268-.012.537-.028.805-.044a37.907 37.907 0 0 1 1.524-.06c-.024.012-.049.024-.073.04-.297.165-.602.31-.882.494-.313.205-.606.438-.911.663a.208.208 0 0 0-.061.056c-.024.048-.028.096.049.108.301.044.606.092.907.129.728.088 1.459.125 2.195.096.496-.02.996-.06 1.492-.116 1.049-.121 2.057-.39 3.045-.744a16.259 16.259 0 0 0 2.358-1.101c.179-.1.362-.197.545-.302.053-.028.085-.02.134.016.492.402 1.041.699 1.683.804.455.072.907.052 1.354-.036.366-.072.72-.189 1.045-.362.069-.036.13-.08.203-.129-.22-.374-.496-.695-.793-.997s-.61-.587-.919-.884c.183-.113.37-.225.553-.342.094-.056.183-.117.281-.169.028-.016.073-.02.098-.008.451.237 1.008-.08 1-.587 0-.024.004-.048.004-.076.106.004.207.004.305.016.024.004.053.044.065.076.293.716.581 1.431.87 2.146l.398.985 1.159 2.814c.012.032.024.068.041.105-6.646-.012-13.281-.024-19.923-.04v-.105c.008-4.836.02-9.671.033-14.507 0-.048.02-.113.057-.145.374-.358.752-.711 1.13-1.061a.221.221 0 0 1 .134-.04c1.837 0 3.565.004 5.403.008.146 0 .146 0 .179-.141.081-.33.203-.647.419-.916.004-.008.008-.016.012-.032h-.106c-2.183-.004-4.264-.008-6.447-.016a.257.257 0 0 0-.191.076C1.212 4.51.66 5.032.107 5.555c-.024.02-.049.04-.069.06C.026 11.09.014 16.568.005 22.043c7.199.012 14.403.028 21.602.04.15.366.297.732.447 1.101l.398.985 1.159 2.814.362.949a.54.54 0 0 0 .504.346h.866c-.163-.41-.325-.824-.492-1.234-.772-1.921-1.545-3.847-2.321-5.768-.093-.233-.195-.462-.297-.691-.02-.048-1.797-4.47-1.846-4.606-.004-.016.02-.052.045-.068.232-.185.496-.313.772-.418.524-.201 1.077-.309 1.634-.378.337-.04.679-.072 1.016-.109.077-.008.155-.032.232-.052-.057.129-.402.43-.768.639-.293.165-.598.302-.858.434.256-.028.541-.125.821-.237a8.17 8.17 0 0 0 1.817-1.033c.301-.225.634-.402.959-.587.781-.442 1.581-.852 2.443-1.117.431-.133.874-.233 1.313-.35.028-.008.053-.008.098-.012-.02.024-.033.04-.045.052-.915.776-1.053 2.078-.451 3.107.293.502.703.888 1.228 1.158.065.032.089.068.089.141-.004 1.27-.008 2.54-.008 3.811 0 .185.094.322.252.358.224.052.419-.1.419-.338.004-.354.004-.707.004-1.061v-.458c.398 0 .793 0 1.199.004v.108c0 .474-.004.949-.004 1.423 0 .233.183.378.402.334a.331.331 0 0 0 .26-.301c.004-.032 0-.06 0-.092.004-1.242.004-2.484.008-3.73v-.141c.085.056.159.096.22.149.159.141.24.33.297.526.09.297.175.595.264.892.073.237.207.434.411.583.102.072.199.149.297.229a.384.384 0 0 1 .142.302c.008.354.028.707.004 1.057a20.547 20.547 0 0 1-.167 1.66c-.163 1.077-.524 2.09-1.199 2.974-.35.454-.716.9-1.09 1.334-.22.253-.512.426-.805.591-.179.1-.346.221-.532.301a9.895 9.895 0 0 1-.947.342 6.568 6.568 0 0 1-1.313.261c-.008 0-.016.004-.024.024h.122c.447 0 .89.004 1.337.004.041 0 .081.008.122.008 2.756.004 5.512.012 8.273.016.228-.225.451-.454.679-.679.366-.358.728-.719 1.094-1.073a.195.195 0 0 0 .065-.153c.004-3.389.008-6.773.016-10.162.004-1.978.004-3.955.008-5.933v-.141c-7.419-.028-14.533-.04-21.919-.056zM3.098 17.325c-.049.052-.11.088-.167.133-.053.04-.106.084-.159.133-.11-.169.061-.406.236-.426.041-.004.102.016.118.044.016.024 0 .088-.028.117zm12.463-9.893.065.161c-.146.06-.293.117-.435.181-.447.201-.89.406-1.333.611a19.322 19.322 0 0 0-2.951 1.74c-.033.024-.077.032-.118.04.565-.643 3.838-2.512 4.772-2.733zM6.817 9.627c.256-.289.508-.579.776-.856.252-.257.52-.502.78-.748a.2.2 0 0 0 .077-.165c0-.543-.008-1.081.008-1.624a6.71 6.71 0 0 1 .15-1.363c.024-.096.069-.193.106-.285.012-.028.037-.052.053-.076.037.478.061.949.114 1.415.053.47.126.937.289 1.399.118-.092.228-.173.333-.257.016-.012.016-.048.012-.072-.053-.366-.126-.736-.159-1.101-.053-.559-.024-1.117.154-1.66a.23.23 0 0 1 .045-.084c-.037.888.106 1.74.496 2.552.024-.012.041-.016.053-.024.098-.06.199-.117.305-.181a4.328 4.328 0 0 1-.13-2.287.125.125 0 0 1 .041-.076c.045.366.077.736.142 1.097.065.366.191.715.411 1.033.033-.016.065-.028.093-.04.89-.39 1.781-.784 2.679-1.162.138-.056.309-.032.468-.048.004.012.004.024.008.036-.081.028-.163.056-.24.088-.411.177-.833.342-1.232.543-.626.314-1.248.643-1.858.989a14.957 14.957 0 0 0-3.057 2.299c-.366.354-.703.728-1.053 1.093-.065.068-.15.104-.309.113.146-.189.289-.374.443-.547zM5.008 14.76c.415 0 .748.322.748.724-.024.1-.35.535-.744.719-.427 0-.76-.318-.76-.724-.004-.402.329-.719.756-.719zm.777 3.465c-.183.117-.382.121-.593.08.065-.004.13-.008.195-.016l.085-.012c.207-.044.337-.161.362-.33.028-.169-.073-.334-.272-.434-.232-.121-.484-.161-.74-.177-.22-.016-.443-.012-.663-.016-.016 0-.033-.004-.053-.004.455-.08.911-.113 1.35.04.138.048.276.125.39.217.236.197.199.486-.061.651zm.902-3.071c-.512-.016-.894-.273-1.171-.679-.098-.141-.037-.35.106-.442a.356.356 0 0 1 .459.072c.073.084.146.173.232.241.289.221.659.189.927-.068-.305-.518-.61-1.037-.915-1.552l-.789-1.335a.343.343 0 0 1 .028-.426c.333-.418.76-.655 1.333-.599a1.516 1.516 0 0 1 1.057.631c.114.165.089.354-.065.466a.369.369 0 0 1-.488-.056c-.069-.076-.138-.165-.22-.229a.69.69 0 0 0-.943.056l.061.109c.463.784.927 1.572 1.394 2.355.081.137.171.265.256.402.102.157.094.309-.028.454-.317.382-.715.619-1.236.599zm2.151 2.275a2.476 2.476 0 0 1-.841.426c-.065.02-.134.036-.203.056a.057.057 0 0 1-.008-.024l.114-.052c.313-.141.602-.31.85-.543.492-.466.585-1.005.272-1.604a8.701 8.701 0 0 0-.11-.197c.008-.008.008-.008.012-.008.203-.036.207-.04.289.145.285.611.228 1.322-.374 1.801zm1.414-2.468a.472.472 0 0 1-.061-.233c-.004-.458 0-.916 0-1.375v-.121c-.386 0-.764 0-1.163-.004v.1c0 .474 0 .949-.004 1.423a.33.33 0 0 1-.195.314.327.327 0 0 1-.35-.028c-.102-.072-.142-.173-.142-.297.004-.993.004-1.986.008-2.978 0-.334 0-.671.004-1.005 0-.201.142-.342.337-.342s.346.145.346.342c0 .559 0 1.121-.004 1.68v.116c.394 0 .772 0 1.163.004v-.113c0-.551 0-1.101.004-1.652 0-.306.232-.45.52-.33a.287.287 0 0 1 .179.269c.004.076 0 .153 0 .229-.004 1.266-.004 2.536-.008 3.802 0 .165-.085.273-.252.326-.146.044-.309 0-.382-.129zm.053 2.601.073-.076c.37-.37.659-.784.756-1.298.045-.225.057-.454.012-.679-.016-.1-.012-.177.081-.237.016-.012.024-.036.041-.06.338.716-.195 2.022-.963 2.351zm1.797-5.523c0 .04.024.088.053.121a.764.764 0 0 0 .573.241c.094-.004.191-.004.285 0a.333.333 0 1 1-.008.664h-.293a.788.788 0 0 0-.577.257.14.14 0 0 0-.033.088c-.004.245-.004.49 0 .74 0 .036.024.084.049.113.309.322.764.318 1.077-.008.033-.036.069-.072.098-.113.126-.177.35-.189.512-.084.159.105.187.33.053.49-.443.535-1.069.792-1.752.507a1.446 1.446 0 0 1-.655-.543.447.447 0 0 1-.065-.217c-.004-.334 0-.671-.004-1.005 0-.109.024-.201.098-.281.081-.092.167-.185.252-.277-.089-.1-.187-.197-.268-.305a.4.4 0 0 1-.073-.201c-.008-.338-.004-.675 0-1.017 0-.064.028-.141.065-.197.533-.78 1.565-.868 2.236-.197.057.056.118.113.167.173.126.161.106.374-.045.486a.377.377 0 0 1-.512-.076c-.134-.173-.293-.305-.516-.354-.232-.048-.557.068-.695.253a.154.154 0 0 0-.02.084c-.004.225-.004.442 0 .659zm5.329 5.716c-.894.515-2.285.486-3.403-.458.069-.04.134-.08.203-.113.016-.008.053.008.069.024.402.394.89.627 1.455.703.325.044.65.036.972-.02.236-.036.472-.088.703-.137zm-.301-.358c-.569.314-1.553.305-2.407-.482.094-.105.106-.105.211-.016.496.434 1.089.591 1.74.551.146-.004.289-.032.455-.052zm-.382-.39c-.272.157-1.13-.161-1.39-.506.041-.032.081-.06.13-.1.341.354.74.591 1.26.607zm-1.821-4.948c0 .032.012.064.037.088.15.157.333.253.561.257h.305c.203.004.346.149.342.342-.004.189-.15.322-.35.322h-.256a.783.783 0 0 0-.585.237.216.216 0 0 0-.053.129c-.004.237-.004.474 0 .711 0 .04.024.092.049.121.309.326.772.318 1.081-.012.037-.04.069-.084.106-.129a.352.352 0 0 1 .468-.072c.146.097.195.314.09.458-.561.792-1.577.88-2.236.221-.045-.044-.081-.092-.122-.141a.507.507 0 0 1-.114-.454 2.023 2.023 0 0 0 0-.752c-.028-.165.004-.285.102-.394.077-.088.159-.173.24-.261-.089-.096-.187-.193-.268-.301a.409.409 0 0 1-.077-.209 28.059 28.059 0 0 1 0-1.005c0-.068.028-.149.069-.205.598-.86 1.797-.856 2.398 0a.334.334 0 0 1-.073.47.35.35 0 0 1-.48-.076c-.134-.177-.293-.318-.52-.358-.28-.052-.504.06-.695.253-.016.016-.02.052-.024.076.008.233.004.458.008.683zm4.647 1.483a.29.29 0 0 1-.041.157c-.008.016-.02.028-.028.04-.256.35-.593.579-1.028.631l-.15.012a.932.932 0 0 1-.593-.185v.571c-.004.241-.203.394-.431.338a.326.326 0 0 1-.248-.322v-.711c.004-1.069.004-2.138.004-3.208v-.068c0-.153.053-.273.195-.338a.327.327 0 0 1 .378.064c.171-.048.329-.109.496-.133.585-.088 1.114.213 1.407.651a.305.305 0 0 1 .045.137c0 .012.004.024.004.04 0 .772-.004 1.548-.008 2.323zm11.699 7.513a.408.408 0 0 1-.106.133c-.02.016-.065.004-.102.004.008-.036.012-.068.024-.105.024-.064.057-.125.073-.189.012-.048-.004-.105.008-.157.004-.024.041-.048.069-.052.016-.004.049.036.053.056.008.04.004.084.004.129h.008c-.012.064-.012.129-.033.181zm.02-2.307c-.004.028-.041.048-.061.076-.02-.024-.061-.048-.061-.076a2.272 2.272 0 0 1 0-.33c0-.024.045-.044.069-.068.02.024.053.044.057.068.008.052.004.108.004.165-.004.052.004.108-.008.165zm-.126.86c0-.028.037-.076.061-.08.057-.008.065.04.065.088v.892c0 .048-.008.097-.065.084-.024-.004-.061-.052-.061-.084a33.751 33.751 0 0 1 0-.9zm.069-1.347c-.065.012-.069-.044-.069-.092 0-.044-.004-.105.061-.097.033.004.057.048.102.088-.037.044-.061.092-.094.1zm1.366.519h-.008v.016c-.402 0-.793-.004-1.187-.004 0-.502.004-1.005.004-1.515h.008v-.024a3.2 3.2 0 0 0 1.187.004c0 .511-.004 1.001-.004 1.523zm.545 2.275a.523.523 0 0 1-.138.149c-.012.008-.061-.004-.069-.02-.012-.02-.008-.072.004-.08.102-.064.089-.165.097-.261.004-.056-.041-.153.065-.149.102 0 .053.096.065.153v.028h.008c-.012.064-.004.129-.033.181zm-.041-.462c-.106 0-.065-.088-.065-.145 0-.052-.037-.141.065-.141.098 0 .049.092.089.157-.032.044-.061.129-.089.129zm.159-3.694c-.016-.032-.024-.052-.037-.072a.337.337 0 0 0-.362-.165.33.33 0 0 0-.264.301c-.008.125-.008.121-.138.133a2.814 2.814 0 0 1-.984-.092c-.053-.012-.077-.036-.09-.088-.053-.229-.289-.326-.504-.217-.033.016-.09.016-.114 0-.72-.446-1.207-1.057-1.362-1.885-.094-.507.016-.993.232-1.455.382-.832 1.041-1.306 1.967-1.431.281-.036.565-.056.837.016.317.084.557.261.634.591.106.454-.191.884-.659.965-.093.016-.183.04-.256.056-.069-.092-.13-.177-.191-.261l-.033.02c.02.096.02.201.13.269l-.15.072a.648.648 0 0 0-.313-.281.676.676 0 0 0 .24.338l-.081.092c-.114-.06-.224-.117-.333-.177.041.137.167.253.264.277-.02.032-.041.06-.057.088-.13-.036-.264-.068-.394-.105-.004.012-.012.024-.016.036.122.068.24.141.37.217a.533.533 0 0 1-.02.076 43.391 43.391 0 0 1-.419-.048c-.004.012-.004.024-.008.036.118.08.24.145.398.153v.109c-.118.016-.232.032-.346.044 0 .012 0 .028-.004.04l.374.064c.004.012.012.052.024.092l-.35.137c.004.012.004.024.008.04.126-.012.252-.02.394-.032.02.028.053.068.081.109-.118.052-.224.1-.333.145l.012.044c.13-.02.26-.036.386-.056v-.028c.02.028.045.056.061.08l-.305.233c.008.008.012.02.02.028.138-.02.276-.036.382-.153.045.036.089.076.13.108-.073.1-.142.193-.22.302.134.004.313-.105.358-.197.065.028.13.056.199.084-.016.044-.033.088-.045.133s-.02.084-.028.129l.028.016.203-.237c.061.012.138.024.232.04v.253l.037.012c.045-.088.085-.173.134-.269l.199-.032c.033.064.061.125.094.185h.033c.008-.044.02-.088.02-.133-.004-.068.02-.109.094-.125.041-.008.081-.032.138-.06.032.044.065.092.097.141.008-.004.016-.012.024-.016 0-.016.008-.036.004-.052-.073-.141.028-.193.122-.253.033.02.069.036.114.06.004-.028.016-.048.008-.06-.049-.084 0-.137.049-.201.167-.201.24-.426.122-.675a.309.309 0 0 0-.508-.097c-.073.072-.089.157-.057.257-.175-.044-.272-.306-.183-.466.138-.237.48-.334.74-.205.398.197.606.527.618.949.016.852-.382 1.483-1.138 1.901-.102.048-.207.097-.313.153zm1.561.964c-.203.326-.207.671-.142 1.029.012.076.041.153.065.229l-.02.02c-.061-.04-.126-.076-.179-.125-.183-.169-.264-.39-.337-.619-.061-.201-.114-.402-.183-.599-.11-.326-.26-.619-.598-.804.402-.221.78-.458 1.045-.82.256-.358.439-.752.447-1.214l.646.185.016-.016c-.081-.1-.146-.213-.24-.297-.146-.133-.309-.241-.459-.366-.024-.02-.053-.044-.065-.072a1.32 1.32 0 0 0-.492-.591c-.313-.213-.854-.129-1.077.169-.142.189-.118.511.057.671.138.129.301.121.471.08-.016-.048-.037-.088-.041-.133-.008-.072.02-.141.098-.161.081-.02.106.052.122.113a.378.378 0 0 1-.065.334 1.133 1.133 0 0 1-.886.482c-.175.008-.358 0-.524-.044-.407-.117-.573-.43-.65-.808a.658.658 0 0 1 .053-.43.506.506 0 0 1 .325-.277c.11-.036.224-.068.337-.092.565-.137.919-.756.732-1.294-.028-.084-.081-.165-.11-.265.069.044.138.092.207.137s.142.084.207.133c.106.076.22.145.317.229.138.125.26.269.394.402.151.149.321.257.537.314.569.149 1.049.462 1.488.836.508.434.927.937 1.313 1.475.061.08.13.157.191.237a.408.408 0 0 1 .065.374c-.366.04-.638-.125-.874-.37-.077.177.012.414.195.506a.867.867 0 0 0 .472.076l.093-.012c.15-.016.175-.004.195.145.033.229-.004.43-.215.587-.179.133-.333.297-.504.442a.348.348 0 0 1-.122.06c-.26.064-.52.044-.781.008-.329-.044-.659-.092-.992-.064a4.595 4.595 0 0 1-.236.02c-.146.004-.228.076-.297.181zm4.549-6.515-.012 6.914c-.004 2.488-.004 4.976-.008 7.468 0 .04-.024.092-.053.121-.431.41-.866.816-1.301 1.222a.194.194 0 0 1-.126.048c-1.797 0-3.594-.004-5.386-.008-.024 0-.049-.004-.085-.008.024-.024.037-.044.053-.06a8.471 8.471 0 0 0 2.232-3.505 7.096 7.096 0 0 0 .325-1.813c.02-.322.073-.643.102-.965.037-.478.061-.961-.049-1.435-.037-.169-.11-.33-.134-.494a1.47 1.47 0 0 1 .065-.724.4.4 0 0 1 .362-.273c.211-.008.423-.004.63.012.276.02.553.052.829.08.195.016.386-.004.549-.125.008-.004.016-.008.024-.016.118-.169.301-.261.463-.386.305-.233.39-.543.289-.908a.67.67 0 0 1-.024-.217c.004-.189-.028-.374-.142-.527-.642-.852-1.362-1.632-2.26-2.235a1.804 1.804 0 0 0-.715-.297 1.122 1.122 0 0 1-.585-.306c-.171-.161-.333-.326-.5-.49a.522.522 0 0 0-.301-.165.113.113 0 0 1-.061-.032c-.28-.306-.646-.458-1.053-.506-.634-.08-1.252-.004-1.817.306-.207.117-.394.273-.585.422a.408.408 0 0 1-.22.1c-.402.04-.793.149-1.175.273-1.057.334-2.049.812-3.012 1.342-.504.277-.988.583-1.443.929-.008.004-.016.008-.028.012.049-.113.094-.217.134-.313-.565.052-1.122.096-1.675.153-.642.064-1.272.197-1.846.502-.167.088-.321.197-.492.301-.207-.498-.415-1.001-.626-1.503.077-.072.15-.149.22-.229a.604.604 0 0 0 .146-.394c0-.776.004-1.552.004-2.331 0-.036-.004-.072-.008-.108.48-.008.959-.012 1.439-.012 2.171-.004 4.346 0 6.516.008 2.049.008 4.098.02 6.146.032l5.094.036h.114c-.012.032-.012.068-.012.105z"/><path fill="#696969" style="fill:var(--color1,#696969)" d="M18.919 13.361c-.004-.318 0-.635 0-.949v-.969a.22.22 0 0 0-.061-.145 1.095 1.095 0 0 0-.13-.108c-.293-.193-.663-.153-.923.121a.202.202 0 0 0-.049.113c0 .29-.004.575-.004.864v1.101c0 .036.016.08.041.105a.748.748 0 0 0 .549.249.767.767 0 0 0 .508-.221.197.197 0 0 0 .069-.161zM17.578 11.858c-.008 0-.016-.004-.024 0-.02 0-.053.06-.053.096-.004.269-.004.535 0 .804 0 .032.037.064.057.096.016-.032.049-.06.053-.092.004-.137.004-.269.004-.406V11.942c-.004-.036 0-.072-.037-.084zM19.399 13.329c.012-.012.024-.028.037-.04s.02-.024.02-.036c.008-.1.004-.201.004-.301 0-.097.004-.197 0-.293 0-.028-.033-.056-.053-.084-.02.024-.057.052-.057.076-.004.141-.004.277-.004.418v.189c0 .024.037.048.053.072zM17.61 14.659c-.012-.052.028-.141-.057-.141-.098 0-.053.088-.057.145-.008.088 0 .177-.073.245-.02.02-.024.056-.033.084.033 0 .081.016.098 0a.427.427 0 0 0 .106-.153c.02-.044.012-.1.02-.153h-.004v-.028zM17.496 14.322c0 .032.037.064.057.092.024-.024.049-.048.086-.088-.037-.04-.061-.068-.086-.092-.024.028-.057.06-.057.088zM17.643 11.665l-.086-.092c-.02.028-.057.06-.053.088 0 .032.037.064.057.096a.696.696 0 0 1 .081-.092zM19.346 13.522c-.008.04-.004.096.057.088.024-.004.045-.048.086-.092-.037-.036-.065-.06-.09-.088-.02.032-.045.06-.053.092zM10.74 14.398c.082 0 .069-.056.069-.105V13.28c0-.044.008-.096-.065-.1-.073 0-.069.048-.069.096 0 .342-.004.683 0 1.021.004.044-.008.1.065.1zM8.882 13.273c-.02.032-.057.064-.057.096-.008.153-.004.306-.004.462s-.004.309 0 .462c0 .032.037.064.057.1.02-.032.057-.064.057-.096.004-.31.004-.615 0-.924 0-.036-.033-.068-.053-.1zM10.81 14.679c0-.04.008-.08-.004-.121-.008-.024-.045-.056-.065-.056s-.053.036-.061.06c-.008.048.008.1-.004.145-.016.064-.053.125-.077.189-.012.028-.016.056-.029.084.033 0 .065.012.094.004.147-.056.147-.181.147-.306zM8.931 14.555c-.004-.024-.037-.04-.057-.06-.02.02-.049.04-.053.064-.008.056.004.117-.008.173a.388.388 0 0 1-.057.149c-.024.032-.081.06-.033.1.02.016.09 0 .118-.024.098-.072.09-.181.09-.285.004-.036.012-.08 0-.117zM8.94 12.224c-.004-.024-.037-.044-.057-.068-.02.02-.053.04-.053.064a4.539 4.539 0 0 0 0 .33c0 .02.037.04.053.064.02-.024.053-.044.057-.068.008-.052.004-.105.004-.157-.004-.056.004-.113-.004-.165zM8.829 11.966c-.004.028.033.06.053.088l.09-.088c-.037-.044-.061-.068-.081-.097-.02.032-.057.064-.061.097zM13.643 11.444a.46.46 0 0 0 .196-.137c.045-.068.024-.157-.057-.205-.041-.024-.11-.068-.126-.052-.073.06.02.084.041.129a.17.17 0 0 1 .012.108c-.004.024-.041.036-.065.056l-.024-.028c-.024.02-.049.04-.069.06.029.024.077.076.094.068zM13.704 14.346a.202.202 0 0 1 0 .109c-.008.024-.045.036-.053.06a.111.111 0 0 0 0 .072c.004.008.045.02.057.012.077-.044.147-.092.155-.217 0-.06-.041-.125-.118-.157a.321.321 0 0 0-.151-.016c-.016 0-.033.044-.049.068.024.012.049.028.073.04.029.012.077.012.086.028zM11.956 14.016c.016-.02.045-.036.049-.056.008-.056.004-.117.004-.173s.004-.113-.004-.165c-.004-.024-.037-.04-.053-.06-.02.02-.053.04-.057.06a4.875 4.875 0 0 0 0 .342c.004.016.041.032.061.052zM13.244 14.941c.114-.076.22-.153.322-.229.008-.008 0-.048-.012-.064-.012-.012-.049-.016-.065-.008a4.272 4.272 0 0 0-.285.181c-.016.012-.028.044-.024.06.008.02.037.032.065.06zM12.992 13.019a1.1 1.1 0 0 0 .167-.072c.02-.012.016-.052.025-.084-.029 0-.061-.008-.09-.004-.037.004-.069.024-.106.028-.045.004-.098.004-.086.064.008.028.057.044.09.068zM11.898 14.173c-.004.02.033.044.053.068l.086-.068c-.037-.036-.057-.056-.082-.076-.02.024-.053.048-.057.076zM15.809 15.021c.215-.064.407-.149.561-.293.012-.012.008-.056-.004-.068s-.053-.012-.073-.004c-.061.036-.114.088-.179.121-.098.048-.203.084-.301.133-.024.012-.049.04-.053.064.004.008.037.032.049.048zM16.431 11.448a.17.17 0 0 0 .114-.024c.13-.084.139-.237.012-.342-.024-.02-.081-.04-.102-.024-.053.036-.012.072.02.105.016.016.037.036.045.06.024.06-.02.121-.094.1-.024.02-.053.036-.077.056.033.02.053.06.081.068zM16.513 14.342a.17.17 0 0 1 .004.1c-.008.024-.041.04-.053.064s-.004.056-.008.084c.029 0 .069.008.081-.004.049-.052.09-.113.143-.185-.049-.068-.086-.137-.139-.181-.028-.024-.094-.016-.138-.012-.02.004-.033.044-.045.068.024.012.049.028.077.036.025.008.069.008.077.028zM14.765 14.004c.016-.02.049-.036.049-.056.008-.056.004-.108.004-.165s.004-.117-.004-.173c-.004-.024-.033-.04-.053-.064-.02.02-.057.04-.057.06a4.875 4.875 0 0 0 0 .342c.004.02.041.036.061.056zM14.748 11.813a.088.088 0 0 0 .061-.052c.012-.028.004-.06.004-.1 0 0 .008-.064 0-.092-.008-.024-.037-.04-.053-.06-.02.02-.053.036-.057.06a.779.779 0 0 0 0 .193c0 .02.033.056.045.052zM15.814 13.027c.065-.032.122-.052.171-.089.012-.008.004-.052.008-.076-.024 0-.053-.008-.073-.004-.037.008-.069.028-.102.032-.049.004-.106 0-.098.064-.004.028.053.048.094.072zM14.704 14.153c.004.028.037.052.057.076.02-.02.045-.04.082-.072-.037-.032-.061-.052-.082-.072-.02.024-.057.048-.057.068zM7.476 13.614c0-.004-.004-.008-.004-.008l-.077-.028c-.008.028-.028.06-.02.076.102.173.195.35.313.514.093.129.098.237-.033.338-.024.02-.049.04-.065.064-.012.016-.016.052-.008.064.016.016.049.028.073.02.098-.024.24-.209.24-.33-.008-.016-.012-.052-.033-.084-.13-.209-.26-.418-.386-.627zM7.407 14.716c-.024.004-.049.024-.073.04-.256.137-.516.205-.805.105-.024-.008-.057.016-.085.024.02.028.033.068.057.076.098.028.199.048.301.072.248-.012.463-.105.768-.225.02-.012.02-.048.028-.076-.028-.008-.061-.02-.089-.016zM7.647 11.415c.057.004.122.016.167-.008.138-.076.143-.241.016-.346-.024-.02-.069-.016-.102-.024.008.032.012.068.02.1.012.044.041.092.037.137-.004.024-.065.04-.098.056-.008-.008-.012-.02-.02-.028-.02.016-.053.028-.053.048-.004.02.02.06.033.064zM7.203 13.16c-.004-.008-.045-.004-.061.004-.012.008-.024.04-.016.052.049.084.098.169.155.253.008.012.041.016.061.008.016-.004.029-.028.045-.048-.065-.088-.122-.181-.183-.269zM5.049 16.086a.554.554 0 0 0 .488-.527c.008-.281-.203-.514-.5-.555-.207-.028-.557.125-.593.374.106-.121.24-.133.382-.109.154.024.236.109.24.237a.281.281 0 0 1-.228.289c-.146.028-.285.012-.398-.105.024.241.358.422.61.394z"/></symbol></defs></svg>