<svg aria-hidden="true" style="position: absolute; width: 0; height: 0; overflow: hidden;" version="1.1" xmlns="http://www.w3.org/2000/svg" xmlns:xlink="http://www.w3.org/1999/xlink">
<defs>

<symbol id="phone" viewBox="0 0 32 32">
<path d="M22 20c-2 2-2 4-4 4s-4-2-6-4-4-4-4-6 2-2 4-4-4-8-6-8-6 6-6 6c0 4 4.109 12.109 8 16s12 8 16 8c0 0 6-4 6-6s-6-8-8-6z"></path>
</symbol>
<symbol id="line-2" viewBox="0 0 185 32">
<path stroke-linejoin="round" stroke-linecap="round" stroke-miterlimit="4" stroke-width="14.2222" d="M7.111 24.889l21.333-17.778 21.333 17.778 21.333-17.778 21.333 17.778 21.333-17.778 21.333 17.778 21.333-17.778 21.333 17.778"></path>
</symbol>
<symbol id="legs" viewBox="0 0 32 32">
<path  d="M0 0h32v32h-32v-32z"></path>
<path  d="M2.991 12.145c-0.65 2.861 4.626 13.807 10.273 11.313 2.081-1.040 1.821-3.511 1.821-3.511-0.26-2.081-1.803-1.98-2.211-4.291s1.425-6.103-2.991-7.802c-2.825-1.088-5.994 0.68-6.892 4.291z"></path>
<path fill="var(--color2, #000)" d="M29.009 17.862c0.65 2.861-4.626 13.807-10.273 11.313-2.081-1.040-1.821-3.511-1.821-3.511 0.26-2.081 1.803-1.98 2.211-4.291s-1.425-6.103 2.991-7.802c2.825-1.088 5.994 0.68 6.892 4.291z"></path>
<path fill="var(--color2, #000)" d="M12.485 4.904c-0.079 1.186-0.921 2.095-1.88 2.031s-1.673-1.077-1.594-2.262c0.079-1.186 0.921-2.095 1.88-2.031s1.673 1.077 1.594 2.262z"></path>
<path fill="var(--color2, #000)" d="M19.515 10.621c0.079 1.186 0.921 2.095 1.88 2.031s1.673-1.077 1.594-2.262c-0.079-1.186-0.921-2.095-1.88-2.031s-1.673 1.077-1.594 2.262z"></path>
<path fill="var(--color2, #000)" d="M8.174 5.080c0.096 0.867-0.395 1.632-1.096 1.709s-1.347-0.562-1.443-1.429c-0.096-0.867 0.395-1.632 1.096-1.709s1.347 0.562 1.443 1.429z"></path>
<path fill=" var(--color2, #000)" d="M23.826 10.798c-0.096 0.867 0.395 1.632 1.096 1.709s1.347-0.562 1.443-1.429c0.096-0.867-0.395-1.632-1.096-1.709s-1.347 0.562-1.443 1.429z"></path>
<path fill=" var(--color2, #000)" d="M5.061 6.090c0.28 0.587 0.122 1.247-0.353 1.473s-1.087-0.066-1.367-0.653c-0.28-0.587-0.122-1.247 0.353-1.473s1.087 0.066 1.367 0.653z"></path>
<path fill=" var(--color2, #000)" d="M26.939 11.807c-0.28 0.587-0.122 1.247 0.353 1.473s1.087-0.066 1.367-0.653c0.28-0.587 0.122-1.247-0.353-1.473s-1.087 0.066-1.367 0.653z"></path>
<path fill=" var(--color2, #000)" d="M2.661 7.752c0.466 0.314 0.638 0.874 0.384 1.251s-0.837 0.428-1.303 0.114c-0.466-0.314-0.638-0.874-0.384-1.251s0.837-0.428 1.303-0.114z"></path>
<path fill= "var(--color2, #000)" d="M29.339 13.469c-0.466 0.314-0.638 0.874-0.384 1.251s0.837 0.428 1.303 0.114c0.466-0.314 0.638-0.874 0.384-1.251s-0.837-0.428-1.303-0.114z"></path>
<path fill=" var(--color2, #000)" d="M1.207 10.26c0.492 0.108 0.82 0.518 0.732 0.916s-0.557 0.633-1.049 0.525c-0.492-0.108-0.82-0.518-0.732-0.916s0.557-0.633 1.049-0.525z"></path>
<path fill=" var(--color2, #000)" d="M30.793 15.977c-0.492 0.108-0.82 0.518-0.732 0.916s0.557 0.633 1.049 0.525c0.492-0.108 0.82-0.518 0.732-0.916s-0.557-0.633-1.049-0.525z"></path>
</symbol>
<symbol id="plus" viewBox="0 0 32 32">
<path d="M31 12h-11v-11c0-0.552-0.448-1-1-1h-6c-0.552 0-1 0.448-1 1v11h-11c-0.552 0-1 0.448-1 1v6c0 0.552 0.448 1 1 1h11v11c0 0.552 0.448 1 1 1h6c0.552 0 1-0.448 1-1v-11h11c0.552 0 1-0.448 1-1v-6c0-0.552-0.448-1-1-1z"></path>
</symbol>
<symbol id="icon-arrow-right" viewBox="0 0 32 32">
<path d="M19.414 27.414l10-10c0.781-0.781 0.781-2.047 0-2.828l-10-10c-0.781-0.781-2.047-0.781-2.828 0s-0.781 2.047 0 2.828l6.586 6.586h-19.172c-1.105 0-2 0.895-2 2s0.895 2 2 2h19.172l-6.586 6.586c-0.39 0.39-0.586 0.902-0.586 1.414s0.195 1.024 0.586 1.414c0.781 0.781 2.047 0.781 2.828 0z"></path>
</symbol>
<symbol id="icon-arrow-left" viewBox="0 0 32 32">
<path d="M12.586 27.414l-10-10c-0.781-0.781-0.781-2.047 0-2.828l10-10c0.781-0.781 2.047-0.781 2.828 0s0.781 2.047 0 2.828l-6.586 6.586h19.172c1.105 0 2 0.895 2 2s-0.895 2-2 2h-19.172l6.586 6.586c0.39 0.39 0.586 0.902 0.586 1.414s-0.195 1.024-0.586 1.414c-0.781 0.781-2.047 0.781-2.828 0z"></path>
</symbol>
<symbol id="instagram" viewBox="0 0 32 32">
<path d="M31.969 9.408c-0.075-1.7-0.35-2.869-0.744-3.882-0.406-1.075-1.031-2.038-1.85-2.838-0.8-0.813-1.769-1.444-2.832-1.844-1.019-0.394-2.182-0.669-3.882-0.744-1.713-0.081-2.257-0.1-6.601-0.1s-4.888 0.019-6.595 0.094c-1.7 0.075-2.869 0.35-3.882 0.744-1.075 0.406-2.038 1.031-2.838 1.85-0.813 0.8-1.444 1.769-1.844 2.832-0.394 1.019-0.669 2.182-0.744 3.882-0.081 1.713-0.1 2.257-0.1 6.601s0.019 4.888 0.094 6.595c0.075 1.7 0.35 2.869 0.744 3.882 0.406 1.075 1.038 2.038 1.85 2.838 0.8 0.813 1.769 1.444 2.832 1.844 1.019 0.394 2.182 0.669 3.882 0.744 1.706 0.075 2.25 0.094 6.595 0.094s4.888-0.019 6.595-0.094c1.7-0.075 2.869-0.35 3.882-0.744 2.151-0.832 3.851-2.532 4.682-4.682 0.394-1.019 0.669-2.182 0.744-3.882 0.075-1.707 0.094-2.251 0.094-6.595s-0.006-4.888-0.081-6.595zM29.087 22.473c-0.069 1.563-0.331 2.407-0.55 2.969-0.538 1.394-1.644 2.5-3.038 3.038-0.563 0.219-1.413 0.481-2.969 0.55-1.688 0.075-2.194 0.094-6.464 0.094s-4.782-0.019-6.464-0.094c-1.563-0.069-2.407-0.331-2.969-0.55-0.694-0.256-1.325-0.663-1.838-1.194-0.531-0.519-0.938-1.144-1.194-1.838-0.219-0.563-0.481-1.413-0.55-2.969-0.075-1.688-0.094-2.194-0.094-6.464s0.019-4.782 0.094-6.464c0.069-1.563 0.331-2.407 0.55-2.969 0.256-0.694 0.663-1.325 1.2-1.838 0.519-0.531 1.144-0.938 1.838-1.194 0.563-0.219 1.413-0.481 2.969-0.55 1.688-0.075 2.194-0.094 6.464-0.094 4.276 0 4.782 0.019 6.464 0.094 1.563 0.069 2.407 0.331 2.969 0.55 0.694 0.256 1.325 0.662 1.838 1.194 0.531 0.519 0.938 1.144 1.194 1.838 0.219 0.563 0.481 1.413 0.55 2.969 0.075 1.688 0.094 2.194 0.094 6.464s-0.019 4.77-0.094 6.458z"></path>
<path d="M16.059 7.783c-4.538 0-8.22 3.682-8.22 8.22s3.682 8.22 8.22 8.22c4.539 0 8.22-3.682 8.22-8.22s-3.682-8.22-8.22-8.22zM16.059 21.335c-2.944 0-5.332-2.388-5.332-5.332s2.388-5.332 5.332-5.332c2.944 0 5.332 2.388 5.332 5.332s-2.388 5.332-5.332 5.332z"></path>
<path d="M26.524 7.458c0 1.060-0.859 1.919-1.919 1.919s-1.919-0.859-1.919-1.919c0-1.060 0.859-1.919 1.919-1.919s1.919 0.859 1.919 1.919z"></path>
</symbol>
<symbol id="facebook" viewBox="0 0 32 32">
<path d="M21.329 5.313h2.921v-5.088c-0.504-0.069-2.237-0.225-4.256-0.225-4.212 0-7.097 2.649-7.097 7.519v4.481h-4.648v5.688h4.648v14.312h5.699v-14.311h4.46l0.708-5.688h-5.169v-3.919c0.001-1.644 0.444-2.769 2.735-2.769z"></path>
</symbol>
<symbol id="twitter" viewBox="0 0 32 32">
<path d="M32 7.075c-1.175 0.525-2.444 0.875-3.769 1.031 1.356-0.813 2.394-2.1 2.887-3.631-1.269 0.75-2.675 1.3-4.169 1.594-1.2-1.275-2.906-2.069-4.794-2.069-3.625 0-6.563 2.938-6.563 6.563 0 0.512 0.056 1.012 0.169 1.494-5.456-0.275-10.294-2.888-13.531-6.862-0.563 0.969-0.887 2.1-0.887 3.3 0 2.275 1.156 4.287 2.919 5.463-1.075-0.031-2.087-0.331-2.975-0.819 0 0.025 0 0.056 0 0.081 0 3.181 2.263 5.838 5.269 6.437-0.55 0.15-1.131 0.231-1.731 0.231-0.425 0-0.831-0.044-1.237-0.119 0.838 2.606 3.263 4.506 6.131 4.563-2.25 1.762-5.075 2.813-8.156 2.813-0.531 0-1.050-0.031-1.569-0.094 2.913 1.869 6.362 2.95 10.069 2.95 12.075 0 18.681-10.006 18.681-18.681 0-0.287-0.006-0.569-0.019-0.85 1.281-0.919 2.394-2.075 3.275-3.394z"></path>
</symbol>
<symbol id="youtube" viewBox="0 0 32 32">
<path d="M31.681 9.6c0 0-0.313-2.206-1.275-3.175-1.219-1.275-2.581-1.281-3.206-1.356-4.475-0.325-11.194-0.325-11.194-0.325h-0.012c0 0-6.719 0-11.194 0.325-0.625 0.075-1.987 0.081-3.206 1.356-0.963 0.969-1.269 3.175-1.269 3.175s-0.319 2.588-0.319 5.181v2.425c0 2.587 0.319 5.181 0.319 5.181s0.313 2.206 1.269 3.175c1.219 1.275 2.819 1.231 3.531 1.369 2.563 0.244 10.881 0.319 10.881 0.319s6.725-0.012 11.2-0.331c0.625-0.075 1.988-0.081 3.206-1.356 0.962-0.969 1.275-3.175 1.275-3.175s0.319-2.587 0.319-5.181v-2.425c-0.006-2.588-0.325-5.181-0.325-5.181zM12.694 20.15v-8.994l8.644 4.513-8.644 4.481z"></path>
</symbol>
<symbol id="Frame" viewBox="0 0 41 32">
<path fill="#696969" style="fill: var(--color1, #696969)" d="M35.55 9.9c-0.809-1.954-1.992-3.706-3.512-5.213-1.541-1.527-3.342-2.709-5.35-3.517-1.939-0.78-3.984-1.17-6.085-1.17h-0.020c-2.094 0-4.138 0.386-6.069 1.158-1.268 0.506-2.557 1.162-3.646 1.962-0.081 0.052-0.163 0.153-0.163 0.153l0.057 0.418c0 0 1.48 0.004 1.496 0.004 2.508-1.664 5.419-2.5 8.329-2.5 3.838 0 7.671 1.447 10.59 4.337 1.293 1.282 2.317 2.757 3.053 4.361l0.020 0.072 1.293-0.008 0.008-0.056z"></path>
<path fill="#696969" style="fill: var(--color1, #696969)" d="M28.232 28.712c-2.289 1.355-4.915 2.082-7.646 2.082h-0.020c-3.996-0.040-7.752-1.556-10.573-4.353-1.236-1.226-2.232-2.633-2.955-4.156h-1.329c0.809 1.865 1.955 3.549 3.423 5.004 1.541 1.527 3.341 2.717 5.35 3.525 1.939 0.78 3.984 1.186 6.085 1.186h0.020c2.094 0 4.138-0.402 6.069-1.174 1.341-0.539 2.593-1.246 3.74-2.114-0.228-0.020-2.008-0.020-2.163 0z"></path>
<path fill="#696969" style="fill: var(--color1, #696969)" d="M18.155 10.174c0.11-0.028 0.215-0.044 0.317-0.052-0.142 0-0.289 0-0.431 0 0.016 0.036 0.024 0.060 0.028 0.068 0.037-0.008 0.061-0.012 0.085-0.016z"></path>
<path fill="#696969" style="fill: var(--color1, #696969)" d="M30.399 20.773c0.138-0.169 0.146-0.285 0.033-0.474-0.313-0.527-0.622-1.053-0.935-1.58-0.252-0.426-0.504-0.852-0.756-1.278 0.297-0.277 0.679-0.297 0.984-0.044 0.077 0.064 0.138 0.145 0.203 0.217 0.118 0.133 0.309 0.157 0.451 0.052 0.138-0.1 0.183-0.285 0.085-0.426-0.285-0.414-0.675-0.768-1.195-0.671-0.504-0.004-0.902 0.221-1.203 0.607-0.106 0.137-0.114 0.273-0.024 0.418 0.256 0.418 0.512 0.836 0.764 1.258 0.232 0.39 0.463 0.784 0.695 1.174 0.089 0.153 0.179 0.301 0.268 0.458-0.191 0.181-0.407 0.261-0.663 0.201-0.224-0.048-0.394-0.181-0.533-0.362-0.114-0.149-0.317-0.177-0.463-0.076-0.142 0.1-0.187 0.301-0.085 0.442 0.305 0.43 0.72 0.671 1.26 0.659 0.467 0 0.829-0.221 1.114-0.575zM30.171 17.465c0.008 0.008 0.012 0.016 0.020 0.028 0.020-0.016 0.061-0.024 0.065-0.044 0.008-0.036 0.004-0.080-0.012-0.108-0.028-0.048-0.11-0.088-0.033-0.141 0.069-0.048 0.114 0.024 0.15 0.072 0.085 0.113 0.057 0.257-0.065 0.322-0.037 0.020-0.098 0.016-0.142 0.008-0.024-0.004-0.049-0.052-0.045-0.080-0.008-0.020 0.033-0.040 0.061-0.056zM29.879 19.748c0.024-0.008 0.069 0.004 0.085 0.024 0.041 0.052 0.069 0.117 0.102 0.177 0.085 0.145 0.175 0.293 0.26 0.438 0.024 0.040 0.041 0.088 0.049 0.113 0 0.113-0.15 0.318-0.236 0.342-0.020 0.004-0.061-0.004-0.073-0.024-0.012-0.016-0.008-0.052 0-0.072 0.012-0.024 0.045-0.044 0.065-0.064 0.106-0.105 0.118-0.165 0.041-0.293-0.098-0.169-0.199-0.338-0.297-0.503-0.012-0.020-0.028-0.040-0.028-0.056 0.008-0.028 0.016-0.072 0.033-0.080zM29.753 19.644c-0.053-0.076-0.102-0.157-0.138-0.237-0.012-0.024 0.020-0.064 0.033-0.088 0.085 0.004 0.248 0.281 0.22 0.326-0.037 0.040-0.081 0.044-0.114 0z"></path>
<path fill="#696969" style="fill: var(--color1, #696969)" d="M25.578 17.087c-0.313-0.354-0.699-0.555-1.187-0.527-0.459 0.028-0.821 0.249-1.085 0.611-0.053 0.068-0.085 0.169-0.085 0.253-0.012 0.346-0.012 0.687-0.004 1.033 0 0.084 0.037 0.177 0.081 0.245 0.073 0.108 0.171 0.201 0.256 0.301-0.085 0.096-0.179 0.189-0.256 0.289-0.045 0.056-0.081 0.133-0.085 0.201-0.008 0.49-0.012 0.985-0.004 1.475 0.004 0.221 0.224 0.362 0.435 0.297 0.142-0.044 0.228-0.165 0.228-0.338 0-0.41 0-0.82 0.004-1.226 0-0.048 0.028-0.108 0.061-0.145 0.159-0.157 0.346-0.241 0.577-0.233 0.098 0.004 0.195 0.004 0.293 0 0.187-0.012 0.317-0.153 0.317-0.33-0.004-0.177-0.146-0.318-0.333-0.322-0.102-0.004-0.203-0.004-0.305 0-0.236 0.004-0.419-0.096-0.573-0.261-0.020-0.024-0.037-0.064-0.037-0.101-0.004-0.249 0-0.498 0-0.748 0-0.032 0.008-0.068 0.028-0.092 0.163-0.209 0.476-0.314 0.74-0.245 0.207 0.052 0.358 0.181 0.476 0.346 0.085 0.116 0.203 0.165 0.346 0.141 0.224-0.036 0.354-0.273 0.244-0.462-0.024-0.056-0.081-0.108-0.13-0.165zM23.736 20.998c-0.020 0.052-0.053 0.105-0.098 0.141-0.024 0.020-0.081 0.004-0.122 0.008 0.012-0.036 0.024-0.068 0.041-0.104 0.020-0.048 0.049-0.097 0.061-0.149s-0.004-0.113 0.004-0.165c0.004-0.028 0.037-0.052 0.057-0.080 0.024 0.024 0.057 0.048 0.069 0.076s0.004 0.064 0.004 0.1c0.004 0 0.004 0 0.008 0-0.008 0.060-0.004 0.121-0.024 0.173zM23.687 20.568c-0.061 0.008-0.069-0.048-0.065-0.096 0-0.048 0-0.105 0.065-0.097 0.033 0.004 0.057 0.052 0.106 0.097-0.049 0.044-0.073 0.092-0.106 0.096zM24.769 19.113c0.037-0.004 0.069-0.024 0.106-0.032 0.028-0.004 0.061 0.004 0.093 0.004-0.004 0.032 0 0.080-0.020 0.096-0.049 0.032-0.11 0.052-0.179 0.080-0.037-0.028-0.090-0.052-0.094-0.080-0.016-0.064 0.041-0.064 0.094-0.068zM25.513 17.586c-0.037 0.020-0.085 0.028-0.126 0.020-0.028-0.008-0.061-0.048-0.069-0.080-0.004-0.016 0.049-0.044 0.073-0.064 0.008 0.008 0.016 0.020 0.024 0.028 0.020-0.016 0.057-0.032 0.061-0.052 0.004-0.032 0-0.072-0.016-0.1-0.033-0.044-0.11-0.088-0.033-0.141 0.069-0.048 0.114 0.028 0.15 0.072 0.085 0.108 0.057 0.249-0.065 0.318z"></path>
<path fill="#696969" style="fill: var(--color1, #696969)" d="M27.537 17.268c0.179-0.016 0.309-0.165 0.301-0.334-0.004-0.169-0.146-0.314-0.321-0.314-0.455-0.004-0.911-0.008-1.366-0.004-0.211 0.004-0.358 0.193-0.317 0.394 0.033 0.153 0.167 0.253 0.346 0.257 0.102 0.004 0.207 0 0.309 0-0.004 1.134-0.004 2.247-0.008 3.368-0.106 0-0.203 0-0.301 0-0.207 0-0.358 0.137-0.362 0.326-0.004 0.193 0.146 0.334 0.362 0.334 0.431 0 0.858 0.004 1.289 0.004 0.207 0 0.358-0.137 0.362-0.326s-0.155-0.334-0.362-0.334c-0.102 0-0.199 0-0.305 0 0.004-1.125 0.004-2.239 0.008-3.372 0.13 0 0.248 0.008 0.366 0zM27.468 17.035c0.033 0 0.065-0.028 0.102-0.032 0.028-0.004 0.073-0.004 0.081 0.008 0.012 0.024 0.012 0.072-0.004 0.084-0.049 0.036-0.11 0.060-0.183 0.096-0.041-0.032-0.102-0.056-0.106-0.088-0.004-0.060 0.057-0.064 0.11-0.068zM27.492 21.075c0.037-0.004 0.073-0.028 0.114-0.036 0.028-0.004 0.077-0.004 0.081 0.008 0.012 0.024 0.012 0.076-0.004 0.088-0.053 0.036-0.118 0.060-0.191 0.092-0.041-0.032-0.089-0.052-0.093-0.080-0.012-0.064 0.045-0.064 0.093-0.072zM26.951 18.84c0-0.048 0-0.101 0.069-0.101s0.065 0.052 0.065 0.101c0 0.241 0 0.478 0 0.719 0 0.237 0 0.474 0 0.711 0 0.048 0.004 0.1-0.065 0.1s-0.065-0.052-0.065-0.1c-0.004-0.478-0.004-0.953-0.004-1.431zM27.008 20.648c-0.065 0.004-0.061-0.056-0.061-0.1 0-0.048 0.008-0.104 0.073-0.092 0.032 0.008 0.053 0.056 0.098 0.108-0.049 0.040-0.077 0.084-0.11 0.084z"></path>
<path fill="#696969" style="fill: var(--color1, #696969)" d="M18.614 10.122c-0.085-0.008-0.175-0.008-0.26 0-0.106 0.008-0.211 0.024-0.317 0.052-0.024 0.004-0.049 0.012-0.085 0.016-0.004-0.008-0.012-0.032-0.028-0.068-0.272-0.679-2.439-6.045-2.488-6.174l-4.638-0.024c0.028 0.217 0.061 0.39 0.093 0.579 0.028 0.169 0.045 0.237 0.089 0.41 0.024 0.084 0.049 0.113 0.142 0.113 0.63-0.004 1.114 0 1.74 0 0.033 0 0.065 0 0.122 0-0.65 0.285-1.276 0.559-1.915 0.84-0.049-0.104-0.106-0.213-0.142-0.326-0.057-0.177-0.118-0.35-0.154-0.531-0.089-0.438-0.122-0.603-0.179-0.929-0.041-0.249-0.073-0.514-0.098-0.764-0.041-0.028-0.041-0.036-0.081-0.064-0.191 0.040-0.382 0.072-0.569 0.117-0.333 0.084-0.642 0.221-0.931 0.406-0.207 0.129-0.362 0.301-0.447 0.523-0.098 0.241-0.195 0.486-0.26 0.74-0.053 0.205-0.061 0.426-0.069 0.639-0.028 0.671-0.041 1.347-0.069 2.018 0 0.040-0.033 0.092-0.069 0.121-0.451 0.39-0.874 0.812-1.268 1.254-0.793 0.888-1.472 1.857-2.073 2.878-0.894 1.511-1.512 3.123-1.923 4.815-0.114 0.47-0.183 0.953-0.272 1.427-0.016 0.084 0.016 0.117 0.11 0.113 0.268-0.012 0.537-0.028 0.805-0.044 0.504-0.028 1.008-0.052 1.524-0.060-0.024 0.012-0.049 0.024-0.073 0.040-0.297 0.165-0.602 0.31-0.882 0.494-0.313 0.205-0.606 0.438-0.911 0.663-0.024 0.016-0.049 0.036-0.061 0.056-0.024 0.048-0.028 0.096 0.049 0.108 0.301 0.044 0.606 0.092 0.907 0.129 0.728 0.088 1.459 0.125 2.195 0.096 0.496-0.020 0.996-0.060 1.492-0.116 1.049-0.121 2.057-0.39 3.045-0.744 0.821-0.297 1.598-0.679 2.358-1.101 0.179-0.1 0.362-0.197 0.545-0.302 0.053-0.028 0.085-0.020 0.134 0.016 0.492 0.402 1.041 0.699 1.683 0.804 0.455 0.072 0.907 0.052 1.354-0.036 0.366-0.072 0.72-0.189 1.045-0.362 0.069-0.036 0.13-0.080 0.203-0.129-0.22-0.374-0.496-0.695-0.793-0.997s-0.61-0.587-0.919-0.884c0.183-0.113 0.37-0.225 0.553-0.342 0.094-0.056 0.183-0.117 0.281-0.169 0.028-0.016 0.073-0.020 0.098-0.008 0.451 0.237 1.008-0.080 1-0.587 0-0.024 0.004-0.048 0.004-0.076 0.106 0.004 0.207 0.004 0.305 0.016 0.024 0.004 0.053 0.044 0.065 0.076 0.293 0.716 0.581 1.431 0.87 2.146 0.134 0.33 0.264 0.655 0.398 0.985 0.386 0.937 0.772 1.877 1.159 2.814 0.012 0.032 0.024 0.068 0.041 0.105-6.646-0.012-13.281-0.024-19.923-0.040 0-0.040 0-0.072 0-0.105 0.008-4.836 0.020-9.671 0.033-14.507 0-0.048 0.020-0.113 0.057-0.145 0.374-0.358 0.752-0.711 1.13-1.061 0.033-0.028 0.089-0.040 0.134-0.040 1.837 0 3.565 0.004 5.403 0.008 0.146 0 0.146 0 0.179-0.141 0.081-0.33 0.203-0.647 0.419-0.916 0.004-0.008 0.008-0.016 0.012-0.032-0.041 0-0.073 0-0.106 0-2.183-0.004-4.264-0.008-6.447-0.016-0.081 0-0.134 0.024-0.191 0.076-0.537 0.535-1.089 1.057-1.642 1.58-0.024 0.020-0.049 0.040-0.069 0.060-0.012 5.475-0.024 10.953-0.033 16.428 7.199 0.012 14.403 0.028 21.602 0.040 0.15 0.366 0.297 0.732 0.447 1.101 0.134 0.33 0.264 0.655 0.398 0.985 0.386 0.937 0.772 1.877 1.159 2.814 0.008 0.020 0.22 0.575 0.362 0.949 0.081 0.209 0.28 0.346 0.504 0.346 0.272 0 0.634 0 0.866 0-0.163-0.41-0.325-0.824-0.492-1.234-0.772-1.921-1.545-3.847-2.321-5.768-0.093-0.233-0.195-0.462-0.297-0.691-0.020-0.048-1.797-4.47-1.846-4.606-0.004-0.016 0.020-0.052 0.045-0.068 0.232-0.185 0.496-0.313 0.772-0.418 0.524-0.201 1.077-0.309 1.634-0.378 0.337-0.040 0.679-0.072 1.016-0.109 0.077-0.008 0.155-0.032 0.232-0.052-0.057 0.129-0.402 0.43-0.768 0.639-0.293 0.165-0.598 0.302-0.858 0.434 0.256-0.028 0.541-0.125 0.821-0.237 0.654-0.265 1.256-0.615 1.817-1.033 0.301-0.225 0.634-0.402 0.959-0.587 0.781-0.442 1.581-0.852 2.443-1.117 0.431-0.133 0.874-0.233 1.313-0.35 0.028-0.008 0.053-0.008 0.098-0.012-0.020 0.024-0.033 0.040-0.045 0.052-0.915 0.776-1.053 2.078-0.451 3.107 0.293 0.502 0.703 0.888 1.228 1.158 0.065 0.032 0.089 0.068 0.089 0.141-0.004 1.27-0.008 2.54-0.008 3.811 0 0.185 0.094 0.322 0.252 0.358 0.224 0.052 0.419-0.1 0.419-0.338 0.004-0.354 0.004-0.707 0.004-1.061 0-0.149 0-0.301 0-0.458 0.398 0 0.793 0 1.199 0.004 0 0.036 0 0.072 0 0.108 0 0.474-0.004 0.949-0.004 1.423 0 0.233 0.183 0.378 0.402 0.334 0.142-0.028 0.248-0.153 0.26-0.301 0.004-0.032 0-0.060 0-0.092 0.004-1.242 0.004-2.484 0.008-3.73 0-0.036 0-0.072 0-0.141 0.085 0.056 0.159 0.096 0.22 0.149 0.159 0.141 0.24 0.33 0.297 0.526 0.090 0.297 0.175 0.595 0.264 0.892 0.073 0.237 0.207 0.434 0.411 0.583 0.102 0.072 0.199 0.149 0.297 0.229 0.093 0.076 0.142 0.185 0.142 0.302 0.008 0.354 0.028 0.707 0.004 1.057-0.037 0.555-0.085 1.109-0.167 1.66-0.163 1.077-0.524 2.090-1.199 2.974-0.35 0.454-0.716 0.9-1.090 1.334-0.22 0.253-0.512 0.426-0.805 0.591-0.179 0.1-0.346 0.221-0.532 0.301-0.309 0.129-0.626 0.245-0.947 0.342-0.427 0.133-0.866 0.217-1.313 0.261-0.008 0-0.016 0.004-0.024 0.024 0.041 0 0.081 0 0.122 0 0.447 0 0.89 0.004 1.337 0.004 0.041 0 0.081 0.008 0.122 0.008 2.756 0.004 5.512 0.012 8.273 0.016 0.228-0.225 0.451-0.454 0.679-0.679 0.366-0.358 0.728-0.719 1.094-1.073 0.045-0.044 0.065-0.088 0.065-0.153 0.004-3.389 0.008-6.773 0.016-10.162 0.004-1.978 0.004-3.955 0.008-5.933 0-0.044 0-0.084 0-0.141-7.419-0.028-14.533-0.040-21.919-0.056zM3.098 17.325c-0.049 0.052-0.11 0.088-0.167 0.133-0.053 0.040-0.106 0.084-0.159 0.133-0.11-0.169 0.061-0.406 0.236-0.426 0.041-0.004 0.102 0.016 0.118 0.044 0.016 0.024 0 0.088-0.028 0.117zM15.561 7.432c0.020 0.052 0.041 0.101 0.065 0.161-0.146 0.060-0.293 0.117-0.435 0.181-0.447 0.201-0.89 0.406-1.333 0.611-1.041 0.49-2.016 1.077-2.951 1.74-0.033 0.024-0.077 0.032-0.118 0.040 0.565-0.643 3.838-2.512 4.772-2.733zM6.817 9.627c0.256-0.289 0.508-0.579 0.776-0.856 0.252-0.257 0.52-0.502 0.78-0.748 0.053-0.048 0.077-0.092 0.077-0.165 0-0.543-0.008-1.081 0.008-1.624 0.012-0.458 0.045-0.916 0.15-1.363 0.024-0.096 0.069-0.193 0.106-0.285 0.012-0.028 0.037-0.052 0.053-0.076 0.037 0.478 0.061 0.949 0.114 1.415 0.053 0.47 0.126 0.937 0.289 1.399 0.118-0.092 0.228-0.173 0.333-0.257 0.016-0.012 0.016-0.048 0.012-0.072-0.053-0.366-0.126-0.736-0.159-1.101-0.053-0.559-0.024-1.117 0.154-1.66 0.008-0.028 0.024-0.060 0.045-0.084-0.037 0.888 0.106 1.74 0.496 2.552 0.024-0.012 0.041-0.016 0.053-0.024 0.098-0.060 0.199-0.117 0.305-0.181-0.256-0.752-0.285-1.515-0.13-2.287 0.004-0.028 0.016-0.052 0.041-0.076 0.045 0.366 0.077 0.736 0.142 1.097 0.065 0.366 0.191 0.715 0.411 1.033 0.033-0.016 0.065-0.028 0.093-0.040 0.89-0.39 1.781-0.784 2.679-1.162 0.138-0.056 0.309-0.032 0.468-0.048 0.004 0.012 0.004 0.024 0.008 0.036-0.081 0.028-0.163 0.056-0.24 0.088-0.411 0.177-0.833 0.342-1.232 0.543-0.626 0.314-1.248 0.643-1.858 0.989-1.122 0.635-2.138 1.407-3.057 2.299-0.366 0.354-0.703 0.728-1.053 1.093-0.065 0.068-0.15 0.104-0.309 0.113 0.146-0.189 0.289-0.374 0.443-0.547zM5.008 14.76c0.415 0 0.748 0.322 0.748 0.724-0.024 0.1-0.35 0.535-0.744 0.719-0.427 0-0.76-0.318-0.76-0.724-0.004-0.402 0.329-0.719 0.756-0.719zM5.785 18.225c-0.183 0.117-0.382 0.121-0.593 0.080 0.065-0.004 0.13-0.008 0.195-0.016 0.028-0.004 0.057-0.008 0.085-0.012 0.207-0.044 0.337-0.161 0.362-0.33 0.028-0.169-0.073-0.334-0.272-0.434-0.232-0.121-0.484-0.161-0.74-0.177-0.22-0.016-0.443-0.012-0.663-0.016-0.016 0-0.033-0.004-0.053-0.004 0.455-0.080 0.911-0.113 1.35 0.040 0.138 0.048 0.276 0.125 0.39 0.217 0.236 0.197 0.199 0.486-0.061 0.651zM6.687 15.154c-0.512-0.016-0.894-0.273-1.171-0.679-0.098-0.141-0.037-0.35 0.106-0.442 0.146-0.096 0.346-0.060 0.459 0.072 0.073 0.084 0.146 0.173 0.232 0.241 0.289 0.221 0.659 0.189 0.927-0.068-0.305-0.518-0.61-1.037-0.915-1.552-0.264-0.446-0.524-0.888-0.789-1.335-0.089-0.149-0.081-0.289 0.028-0.426 0.333-0.418 0.76-0.655 1.333-0.599 0.073 0.008 0.146 0.024 0.22 0.044 0.35 0.104 0.634 0.297 0.837 0.587 0.114 0.165 0.089 0.354-0.065 0.466-0.146 0.109-0.362 0.084-0.488-0.056-0.069-0.076-0.138-0.165-0.22-0.229-0.293-0.233-0.687-0.209-0.943 0.056 0.020 0.036 0.041 0.072 0.061 0.109 0.463 0.784 0.927 1.572 1.394 2.355 0.081 0.137 0.171 0.265 0.256 0.402 0.102 0.157 0.094 0.309-0.028 0.454-0.317 0.382-0.715 0.619-1.236 0.599zM8.838 17.429c-0.252 0.201-0.537 0.334-0.841 0.426-0.065 0.020-0.134 0.036-0.203 0.056-0.004-0.008-0.008-0.016-0.008-0.024 0.037-0.016 0.077-0.036 0.114-0.052 0.313-0.141 0.602-0.31 0.85-0.543 0.492-0.466 0.585-1.005 0.272-1.604-0.037-0.068-0.073-0.133-0.11-0.197 0.008-0.008 0.008-0.008 0.012-0.008 0.203-0.036 0.207-0.040 0.289 0.145 0.285 0.611 0.228 1.322-0.374 1.801zM10.252 14.961c-0.041-0.068-0.061-0.157-0.061-0.233-0.004-0.458 0-0.916 0-1.375 0-0.036 0-0.072 0-0.121-0.386 0-0.764 0-1.163-0.004 0 0.032 0 0.068 0 0.1 0 0.474 0 0.949-0.004 1.423 0 0.141-0.065 0.249-0.195 0.314-0.122 0.060-0.24 0.048-0.35-0.028-0.102-0.072-0.142-0.173-0.142-0.297 0.004-0.993 0.004-1.986 0.008-2.978 0-0.334 0-0.671 0.004-1.005 0-0.201 0.142-0.342 0.337-0.342s0.346 0.145 0.346 0.342c0 0.559 0 1.121-0.004 1.68 0 0.036 0 0.072 0 0.116 0.394 0 0.772 0 1.163 0.004 0-0.040 0-0.076 0-0.113 0-0.551 0-1.101 0.004-1.652 0-0.306 0.232-0.45 0.52-0.33 0.118 0.052 0.175 0.149 0.179 0.269 0.004 0.076 0 0.153 0 0.229-0.004 1.266-0.004 2.536-0.008 3.802 0 0.165-0.085 0.273-0.252 0.326-0.146 0.044-0.309 0-0.382-0.129zM10.305 17.562c0.024-0.024 0.049-0.052 0.073-0.076 0.37-0.37 0.659-0.784 0.756-1.298 0.045-0.225 0.057-0.454 0.012-0.679-0.016-0.1-0.012-0.177 0.081-0.237 0.016-0.012 0.024-0.036 0.041-0.060 0.338 0.716-0.195 2.022-0.963 2.351zM12.102 12.039c0 0.040 0.024 0.088 0.053 0.121 0.155 0.157 0.346 0.245 0.573 0.241 0.094-0.004 0.191-0.004 0.285 0 0.195 0.008 0.337 0.153 0.333 0.342-0.004 0.185-0.15 0.322-0.341 0.322-0.098 0-0.195 0-0.293 0-0.232 0-0.419 0.097-0.577 0.257-0.020 0.020-0.033 0.060-0.033 0.088-0.004 0.245-0.004 0.49 0 0.74 0 0.036 0.024 0.084 0.049 0.113 0.309 0.322 0.764 0.318 1.077-0.008 0.033-0.036 0.069-0.072 0.098-0.113 0.126-0.177 0.35-0.189 0.512-0.084 0.159 0.105 0.187 0.33 0.053 0.49-0.443 0.535-1.069 0.792-1.752 0.507-0.276-0.113-0.492-0.302-0.655-0.543-0.041-0.060-0.061-0.145-0.065-0.217-0.004-0.334 0-0.671-0.004-1.005 0-0.109 0.024-0.201 0.098-0.281 0.081-0.092 0.167-0.185 0.252-0.277-0.089-0.1-0.187-0.197-0.268-0.305-0.041-0.056-0.069-0.133-0.073-0.201-0.008-0.338-0.004-0.675 0-1.017 0-0.064 0.028-0.141 0.065-0.197 0.533-0.78 1.565-0.868 2.236-0.197 0.057 0.056 0.118 0.113 0.167 0.173 0.126 0.161 0.106 0.374-0.045 0.486-0.154 0.117-0.39 0.080-0.512-0.076-0.134-0.173-0.293-0.305-0.516-0.354-0.232-0.048-0.557 0.068-0.695 0.253-0.016 0.024-0.020 0.056-0.020 0.084-0.004 0.225-0.004 0.442 0 0.659zM17.431 17.755c-0.894 0.515-2.285 0.486-3.403-0.458 0.069-0.040 0.134-0.080 0.203-0.113 0.016-0.008 0.053 0.008 0.069 0.024 0.402 0.394 0.89 0.627 1.455 0.703 0.325 0.044 0.65 0.036 0.972-0.020 0.236-0.036 0.472-0.088 0.703-0.137zM17.13 17.397c-0.569 0.314-1.553 0.305-2.407-0.482 0.094-0.105 0.106-0.105 0.211-0.016 0.496 0.434 1.089 0.591 1.74 0.551 0.146-0.004 0.289-0.032 0.455-0.052zM16.748 17.007c-0.272 0.157-1.13-0.161-1.39-0.506 0.041-0.032 0.081-0.060 0.13-0.1 0.341 0.354 0.74 0.591 1.26 0.607zM14.927 12.059c0 0.032 0.012 0.064 0.037 0.088 0.15 0.157 0.333 0.253 0.561 0.257 0.102 0 0.203 0 0.305 0 0.203 0.004 0.346 0.149 0.342 0.342-0.004 0.189-0.15 0.322-0.35 0.322-0.085 0-0.171 0-0.256 0-0.232-0.004-0.427 0.080-0.585 0.237-0.028 0.028-0.053 0.088-0.053 0.129-0.004 0.237-0.004 0.474 0 0.711 0 0.040 0.024 0.092 0.049 0.121 0.309 0.326 0.772 0.318 1.081-0.012 0.037-0.040 0.069-0.084 0.106-0.129 0.118-0.141 0.317-0.173 0.468-0.072 0.146 0.097 0.195 0.314 0.090 0.458-0.561 0.792-1.577 0.88-2.236 0.221-0.045-0.044-0.081-0.092-0.122-0.141-0.11-0.125-0.146-0.269-0.114-0.454 0.045-0.249 0.049-0.502 0-0.752-0.028-0.165 0.004-0.285 0.102-0.394 0.077-0.088 0.159-0.173 0.24-0.261-0.089-0.096-0.187-0.193-0.268-0.301-0.045-0.060-0.073-0.141-0.077-0.209-0.008-0.334-0.004-0.671 0-1.005 0-0.068 0.028-0.149 0.069-0.205 0.598-0.86 1.797-0.856 2.398 0 0.11 0.157 0.077 0.366-0.073 0.47-0.15 0.108-0.366 0.076-0.48-0.076-0.134-0.177-0.293-0.318-0.52-0.358-0.28-0.052-0.504 0.060-0.695 0.253-0.016 0.016-0.020 0.052-0.024 0.076 0.008 0.233 0.004 0.458 0.008 0.683zM19.574 13.542c0 0.052-0.012 0.116-0.041 0.157-0.008 0.016-0.020 0.028-0.028 0.040-0.256 0.35-0.593 0.579-1.028 0.631-0.049 0.004-0.098 0.008-0.15 0.012-0.211 0.004-0.407-0.048-0.593-0.185 0 0.205 0 0.386 0 0.571-0.004 0.241-0.203 0.394-0.431 0.338-0.146-0.036-0.248-0.165-0.248-0.322 0-0.237 0-0.474 0-0.711 0.004-1.069 0.004-2.138 0.004-3.208 0-0.024 0-0.044 0-0.068 0-0.153 0.053-0.273 0.195-0.338 0.146-0.064 0.276-0.032 0.378 0.064 0.171-0.048 0.329-0.109 0.496-0.133 0.585-0.088 1.114 0.213 1.407 0.651 0.024 0.036 0.041 0.088 0.045 0.137 0 0.012 0.004 0.024 0.004 0.040 0 0.772-0.004 1.548-0.008 2.323zM31.273 21.055c-0.020 0.048-0.065 0.097-0.106 0.133-0.020 0.016-0.065 0.004-0.102 0.004 0.008-0.036 0.012-0.068 0.024-0.105 0.024-0.064 0.057-0.125 0.073-0.189 0.012-0.048-0.004-0.105 0.008-0.157 0.004-0.024 0.041-0.048 0.069-0.052 0.016-0.004 0.049 0.036 0.053 0.056 0.008 0.040 0.004 0.084 0.004 0.129 0.004 0 0.004 0 0.008 0-0.012 0.064-0.012 0.129-0.033 0.181zM31.293 18.748c-0.004 0.028-0.041 0.048-0.061 0.076-0.020-0.024-0.061-0.048-0.061-0.076-0.008-0.108-0.008-0.221 0-0.33 0-0.024 0.045-0.044 0.069-0.068 0.020 0.024 0.053 0.044 0.057 0.068 0.008 0.052 0.004 0.108 0.004 0.165-0.004 0.052 0.004 0.108-0.008 0.165zM31.167 19.608c0-0.028 0.037-0.076 0.061-0.080 0.057-0.008 0.065 0.040 0.065 0.088 0 0.149 0 0.301 0 0.45s0 0.293 0 0.442c0 0.048-0.008 0.097-0.065 0.084-0.024-0.004-0.061-0.052-0.061-0.084-0.004-0.297-0.004-0.599 0-0.9zM31.236 18.261c-0.065 0.012-0.069-0.044-0.069-0.092 0-0.044-0.004-0.105 0.061-0.097 0.033 0.004 0.057 0.048 0.102 0.088-0.037 0.044-0.061 0.092-0.094 0.1zM32.602 18.78c-0.004 0-0.004 0-0.008 0 0 0 0 0.008 0 0.016-0.402 0-0.793-0.004-1.187-0.004 0-0.502 0.004-1.005 0.004-1.515 0.004 0 0.004 0 0.008 0 0-0.008 0-0.016 0-0.024 0.394 0.068 0.789 0.084 1.187 0.004 0 0.511-0.004 1.001-0.004 1.523zM33.147 21.055c-0.028 0.056-0.085 0.105-0.138 0.149-0.012 0.008-0.061-0.004-0.069-0.020-0.012-0.020-0.008-0.072 0.004-0.080 0.102-0.064 0.089-0.165 0.097-0.261 0.004-0.056-0.041-0.153 0.065-0.149 0.102 0 0.053 0.096 0.065 0.153 0 0.008 0 0.020 0 0.028 0.004 0 0.004 0 0.008 0-0.012 0.064-0.004 0.129-0.033 0.181zM33.106 20.593c-0.106 0-0.065-0.088-0.065-0.145 0-0.052-0.037-0.141 0.065-0.141 0.098 0 0.049 0.092 0.089 0.157-0.032 0.044-0.061 0.129-0.089 0.129zM33.265 16.899c-0.016-0.032-0.024-0.052-0.037-0.072-0.073-0.129-0.224-0.197-0.362-0.165-0.151 0.036-0.252 0.149-0.264 0.301-0.008 0.125-0.008 0.121-0.138 0.133-0.333 0.032-0.663-0.008-0.984-0.092-0.053-0.012-0.077-0.036-0.090-0.088-0.053-0.229-0.289-0.326-0.504-0.217-0.033 0.016-0.090 0.016-0.114 0-0.72-0.446-1.207-1.057-1.362-1.885-0.094-0.507 0.016-0.993 0.232-1.455 0.382-0.832 1.041-1.306 1.967-1.431 0.281-0.036 0.565-0.056 0.837 0.016 0.317 0.084 0.557 0.261 0.634 0.591 0.106 0.454-0.191 0.884-0.659 0.965-0.093 0.016-0.183 0.040-0.256 0.056-0.069-0.092-0.13-0.177-0.191-0.261-0.012 0.008-0.020 0.012-0.033 0.020 0.020 0.096 0.020 0.201 0.13 0.269-0.049 0.024-0.098 0.048-0.15 0.072-0.069-0.117-0.159-0.213-0.313-0.281 0.053 0.149 0.126 0.253 0.24 0.338-0.028 0.032-0.057 0.064-0.081 0.092-0.114-0.060-0.224-0.117-0.333-0.177 0.041 0.137 0.167 0.253 0.264 0.277-0.020 0.032-0.041 0.060-0.057 0.088-0.13-0.036-0.264-0.068-0.394-0.105-0.004 0.012-0.012 0.024-0.016 0.036 0.122 0.068 0.24 0.141 0.37 0.217-0.004 0.020-0.012 0.056-0.020 0.076-0.146-0.016-0.285-0.032-0.419-0.048-0.004 0.012-0.004 0.024-0.008 0.036 0.118 0.080 0.24 0.145 0.398 0.153 0 0.028 0 0.072 0 0.109-0.118 0.016-0.232 0.032-0.346 0.044 0 0.012 0 0.028-0.004 0.040 0.118 0.020 0.236 0.040 0.374 0.064 0.004 0.012 0.012 0.052 0.024 0.092-0.122 0.048-0.236 0.092-0.35 0.137 0.004 0.012 0.004 0.024 0.008 0.040 0.126-0.012 0.252-0.020 0.394-0.032 0.020 0.028 0.053 0.068 0.081 0.109-0.118 0.052-0.224 0.1-0.333 0.145 0.004 0.016 0.008 0.028 0.012 0.044 0.13-0.020 0.26-0.036 0.386-0.056 0-0.008 0-0.020 0-0.028 0.020 0.028 0.045 0.056 0.061 0.080-0.106 0.080-0.207 0.157-0.305 0.233 0.008 0.008 0.012 0.020 0.020 0.028 0.138-0.020 0.276-0.036 0.382-0.153 0.045 0.036 0.089 0.076 0.13 0.108-0.073 0.1-0.142 0.193-0.22 0.302 0.134 0.004 0.313-0.105 0.358-0.197 0.065 0.028 0.13 0.056 0.199 0.084-0.016 0.044-0.033 0.088-0.045 0.133s-0.020 0.084-0.028 0.129c0.008 0.004 0.020 0.012 0.028 0.016 0.065-0.076 0.13-0.153 0.203-0.237 0.061 0.012 0.138 0.024 0.232 0.040 0 0.080 0 0.169 0 0.253 0.012 0.004 0.024 0.008 0.037 0.012 0.045-0.088 0.085-0.173 0.134-0.269 0.053-0.008 0.126-0.020 0.199-0.032 0.033 0.064 0.061 0.125 0.094 0.185 0.012 0 0.020 0 0.033 0 0.008-0.044 0.020-0.088 0.020-0.133-0.004-0.068 0.020-0.109 0.094-0.125 0.041-0.008 0.081-0.032 0.138-0.060 0.032 0.044 0.065 0.092 0.097 0.141 0.008-0.004 0.016-0.012 0.024-0.016 0-0.016 0.008-0.036 0.004-0.052-0.073-0.141 0.028-0.193 0.122-0.253 0.033 0.020 0.069 0.036 0.114 0.060 0.004-0.028 0.016-0.048 0.008-0.060-0.049-0.084 0-0.137 0.049-0.201 0.167-0.201 0.24-0.426 0.122-0.675-0.097-0.213-0.35-0.253-0.508-0.097-0.073 0.072-0.089 0.157-0.057 0.257-0.175-0.044-0.272-0.306-0.183-0.466 0.138-0.237 0.48-0.334 0.74-0.205 0.398 0.197 0.606 0.527 0.618 0.949 0.016 0.852-0.382 1.483-1.138 1.901-0.102 0.048-0.207 0.097-0.313 0.153zM34.826 17.863c-0.203 0.326-0.207 0.671-0.142 1.029 0.012 0.076 0.041 0.153 0.065 0.229-0.008 0.008-0.012 0.012-0.020 0.020-0.061-0.040-0.126-0.076-0.179-0.125-0.183-0.169-0.264-0.39-0.337-0.619-0.061-0.201-0.114-0.402-0.183-0.599-0.11-0.326-0.26-0.619-0.598-0.804 0.402-0.221 0.78-0.458 1.045-0.82 0.256-0.358 0.439-0.752 0.447-1.214 0.224 0.064 0.435 0.125 0.646 0.185 0.004-0.004 0.012-0.012 0.016-0.016-0.081-0.1-0.146-0.213-0.24-0.297-0.146-0.133-0.309-0.241-0.459-0.366-0.024-0.020-0.053-0.044-0.065-0.072-0.102-0.245-0.268-0.438-0.492-0.591-0.313-0.213-0.854-0.129-1.077 0.169-0.142 0.189-0.118 0.511 0.057 0.671 0.138 0.129 0.301 0.121 0.471 0.080-0.016-0.048-0.037-0.088-0.041-0.133-0.008-0.072 0.020-0.141 0.098-0.161 0.081-0.020 0.106 0.052 0.122 0.113 0.037 0.121 0.004 0.233-0.065 0.334-0.215 0.293-0.512 0.462-0.886 0.482-0.175 0.008-0.358 0-0.524-0.044-0.407-0.117-0.573-0.43-0.65-0.808-0.028-0.149-0.016-0.293 0.053-0.43 0.065-0.137 0.175-0.233 0.325-0.277 0.11-0.036 0.224-0.068 0.337-0.092 0.565-0.137 0.919-0.756 0.732-1.294-0.028-0.084-0.081-0.165-0.11-0.265 0.069 0.044 0.138 0.092 0.207 0.137s0.142 0.084 0.207 0.133c0.106 0.076 0.22 0.145 0.317 0.229 0.138 0.125 0.26 0.269 0.394 0.402 0.151 0.149 0.321 0.257 0.537 0.314 0.569 0.149 1.049 0.462 1.488 0.836 0.508 0.434 0.927 0.937 1.313 1.475 0.061 0.080 0.13 0.157 0.191 0.237 0.081 0.113 0.106 0.233 0.065 0.374-0.366 0.040-0.638-0.125-0.874-0.37-0.077 0.177 0.012 0.414 0.195 0.506 0.146 0.076 0.309 0.088 0.472 0.076 0.032-0.004 0.061-0.008 0.093-0.012 0.15-0.016 0.175-0.004 0.195 0.145 0.033 0.229-0.004 0.43-0.215 0.587-0.179 0.133-0.333 0.297-0.504 0.442-0.033 0.028-0.081 0.048-0.122 0.060-0.26 0.064-0.52 0.044-0.781 0.008-0.329-0.044-0.659-0.092-0.992-0.064-0.077 0.008-0.158 0.016-0.236 0.020-0.146 0.004-0.228 0.076-0.297 0.181zM39.375 11.348c-0.004 2.303-0.008 4.61-0.012 6.914-0.004 2.488-0.004 4.976-0.008 7.468 0 0.040-0.024 0.092-0.053 0.121-0.431 0.41-0.866 0.816-1.301 1.222-0.028 0.028-0.081 0.048-0.126 0.048-1.797 0-3.594-0.004-5.386-0.008-0.024 0-0.049-0.004-0.085-0.008 0.024-0.024 0.037-0.044 0.053-0.060 1.037-0.993 1.785-2.154 2.232-3.505 0.195-0.595 0.289-1.198 0.325-1.813 0.020-0.322 0.073-0.643 0.102-0.965 0.037-0.478 0.061-0.961-0.049-1.435-0.037-0.169-0.11-0.33-0.134-0.494-0.037-0.241-0.020-0.486 0.065-0.724 0.053-0.157 0.195-0.265 0.362-0.273 0.211-0.008 0.423-0.004 0.63 0.012 0.276 0.020 0.553 0.052 0.829 0.080 0.195 0.016 0.386-0.004 0.549-0.125 0.008-0.004 0.016-0.008 0.024-0.016 0.118-0.169 0.301-0.261 0.463-0.386 0.305-0.233 0.39-0.543 0.289-0.908-0.020-0.072-0.028-0.145-0.024-0.217 0.004-0.189-0.028-0.374-0.142-0.527-0.642-0.852-1.362-1.632-2.26-2.235-0.215-0.145-0.451-0.253-0.715-0.297-0.228-0.040-0.419-0.149-0.585-0.306-0.171-0.161-0.333-0.326-0.5-0.49-0.085-0.084-0.179-0.149-0.301-0.165-0.024-0.004-0.045-0.016-0.061-0.032-0.28-0.306-0.646-0.458-1.053-0.506-0.634-0.080-1.252-0.004-1.817 0.306-0.207 0.117-0.394 0.273-0.585 0.422-0.069 0.056-0.13 0.088-0.22 0.1-0.402 0.040-0.793 0.149-1.175 0.273-1.057 0.334-2.049 0.812-3.012 1.342-0.504 0.277-0.988 0.583-1.443 0.929-0.008 0.004-0.016 0.008-0.028 0.012 0.049-0.113 0.094-0.217 0.134-0.313-0.565 0.052-1.122 0.096-1.675 0.153-0.642 0.064-1.272 0.197-1.846 0.502-0.167 0.088-0.321 0.197-0.492 0.301-0.207-0.498-0.415-1.001-0.626-1.503 0.077-0.072 0.15-0.149 0.22-0.229 0.094-0.109 0.146-0.249 0.146-0.394 0-0.776 0.004-1.552 0.004-2.331 0-0.036-0.004-0.072-0.008-0.108 0.48-0.008 0.959-0.012 1.439-0.012 2.171-0.004 4.346 0 6.516 0.008 2.049 0.008 4.098 0.020 6.146 0.032 1.699 0.012 3.394 0.024 5.094 0.036 0.033 0 0.069 0 0.114 0-0.012 0.032-0.012 0.068-0.012 0.105z"></path>
<path fill="#696969" style="fill: var(--color1, #696969)" d="M18.919 13.361c-0.004-0.318 0-0.635 0-0.949 0-0.121 0-0.245 0-0.366 0-0.201 0-0.402 0-0.603 0-0.048-0.024-0.109-0.061-0.145-0.041-0.040-0.085-0.076-0.13-0.108-0.293-0.193-0.663-0.153-0.923 0.121-0.028 0.028-0.045 0.076-0.049 0.113 0 0.29-0.004 0.575-0.004 0.864 0 0.366 0 0.736 0 1.101 0 0.036 0.016 0.080 0.041 0.105 0.159 0.169 0.354 0.249 0.549 0.249 0.175-0.004 0.354-0.076 0.508-0.221 0.049-0.044 0.069-0.092 0.069-0.161z"></path>
<path fill="#696969" style="fill: var(--color1, #696969)" d="M17.578 11.858c-0.008 0-0.016-0.004-0.024 0-0.020 0-0.053 0.060-0.053 0.096-0.004 0.269-0.004 0.535 0 0.804 0 0.032 0.037 0.064 0.057 0.096 0.016-0.032 0.049-0.060 0.053-0.092 0.004-0.137 0.004-0.269 0.004-0.406 0-0.133 0-0.265 0-0.398 0-0.004 0-0.012 0-0.016-0.004-0.036 0-0.072-0.037-0.084z"></path>
<path fill="#696969" style="fill: var(--color1, #696969)" d="M19.399 13.329c0.012-0.012 0.024-0.028 0.037-0.040s0.020-0.024 0.020-0.036c0.008-0.1 0.004-0.201 0.004-0.301 0-0.097 0.004-0.197 0-0.293 0-0.028-0.033-0.056-0.053-0.084-0.020 0.024-0.057 0.052-0.057 0.076-0.004 0.141-0.004 0.277-0.004 0.418 0 0.064 0 0.125 0 0.189 0 0.024 0.037 0.048 0.053 0.072z"></path>
<path fill="#696969" style="fill: var(--color1, #696969)" d="M17.61 14.659c-0.012-0.052 0.028-0.141-0.057-0.141-0.098 0-0.053 0.088-0.057 0.145-0.008 0.088 0 0.177-0.073 0.245-0.020 0.020-0.024 0.056-0.033 0.084 0.033 0 0.081 0.016 0.098 0 0.045-0.044 0.086-0.097 0.106-0.153 0.020-0.044 0.012-0.1 0.020-0.153h-0.004c0-0.008 0-0.020 0-0.028z"></path>
<path fill="#696969" style="fill: var(--color1, #696969)" d="M17.496 14.322c0 0.032 0.037 0.064 0.057 0.092 0.024-0.024 0.049-0.048 0.086-0.088-0.037-0.040-0.061-0.068-0.086-0.092-0.024 0.028-0.057 0.060-0.057 0.088z"></path>
<path fill="#696969" style="fill: var(--color1, #696969)" d="M17.643 11.665c-0.037-0.040-0.061-0.064-0.086-0.092-0.020 0.028-0.057 0.060-0.053 0.088 0 0.032 0.037 0.064 0.057 0.096 0.020-0.028 0.041-0.052 0.081-0.092z"></path>
<path fill="#696969" style="fill: var(--color1, #696969)" d="M19.346 13.522c-0.008 0.040-0.004 0.096 0.057 0.088 0.024-0.004 0.045-0.048 0.086-0.092-0.037-0.036-0.065-0.060-0.090-0.088-0.020 0.032-0.045 0.060-0.053 0.092z"></path>
<path fill="#696969" style="fill: var(--color1, #696969)" d="M10.74 14.398c0.082 0 0.069-0.056 0.069-0.105 0-0.165 0-0.33 0-0.498 0-0.173 0-0.346 0-0.515 0-0.044 0.008-0.096-0.065-0.1-0.073 0-0.069 0.048-0.069 0.096 0 0.342-0.004 0.683 0 1.021 0.004 0.044-0.008 0.1 0.065 0.1z"></path>
<path fill="#696969" style="fill: var(--color1, #696969)" d="M8.882 13.273c-0.020 0.032-0.057 0.064-0.057 0.096-0.008 0.153-0.004 0.306-0.004 0.462s-0.004 0.309 0 0.462c0 0.032 0.037 0.064 0.057 0.1 0.020-0.032 0.057-0.064 0.057-0.096 0.004-0.31 0.004-0.615 0-0.924 0-0.036-0.033-0.068-0.053-0.1z"></path>
<path fill="#696969" style="fill: var(--color1, #696969)" d="M10.81 14.679c0-0.040 0.008-0.080-0.004-0.121-0.008-0.024-0.045-0.056-0.065-0.056s-0.053 0.036-0.061 0.060c-0.008 0.048 0.008 0.1-0.004 0.145-0.016 0.064-0.053 0.125-0.077 0.189-0.012 0.028-0.016 0.056-0.029 0.084 0.033 0 0.065 0.012 0.094 0.004 0.147-0.056 0.147-0.181 0.147-0.306z"></path>
<path fill="#696969" style="fill: var(--color1, #696969)" d="M8.931 14.555c-0.004-0.024-0.037-0.040-0.057-0.060-0.020 0.020-0.049 0.040-0.053 0.064-0.008 0.056 0.004 0.117-0.008 0.173-0.008 0.052-0.028 0.104-0.057 0.149-0.024 0.032-0.081 0.060-0.033 0.1 0.020 0.016 0.090 0 0.118-0.024 0.098-0.072 0.090-0.181 0.090-0.285 0.004-0.036 0.012-0.080 0-0.117z"></path>
<path fill="#696969" style="fill: var(--color1, #696969)" d="M8.94 12.224c-0.004-0.024-0.037-0.044-0.057-0.068-0.020 0.020-0.053 0.040-0.053 0.064-0.004 0.109-0.004 0.221 0 0.33 0 0.020 0.037 0.040 0.053 0.064 0.020-0.024 0.053-0.044 0.057-0.068 0.008-0.052 0.004-0.105 0.004-0.157-0.004-0.056 0.004-0.113-0.004-0.165z"></path>
<path fill="#696969" style="fill: var(--color1, #696969)" d="M8.829 11.966c-0.004 0.028 0.033 0.060 0.053 0.088 0.024-0.024 0.053-0.052 0.090-0.088-0.037-0.044-0.061-0.068-0.081-0.097-0.020 0.032-0.057 0.064-0.061 0.097z"></path>
<path fill="#696969" style="fill: var(--color1, #696969)" d="M13.643 11.444c0.073-0.032 0.155-0.076 0.196-0.137 0.045-0.068 0.024-0.157-0.057-0.205-0.041-0.024-0.11-0.068-0.126-0.052-0.073 0.060 0.020 0.084 0.041 0.129 0.016 0.032 0.020 0.076 0.012 0.108-0.004 0.024-0.041 0.036-0.065 0.056-0.008-0.008-0.016-0.020-0.024-0.028-0.024 0.020-0.049 0.040-0.069 0.060 0.029 0.024 0.077 0.076 0.094 0.068z"></path>
<path fill="#696969" style="fill: var(--color1, #696969)" d="M13.704 14.346c0.012 0.032 0.008 0.076 0 0.109-0.008 0.024-0.045 0.036-0.053 0.060-0.008 0.020-0.008 0.052 0 0.072 0.004 0.008 0.045 0.020 0.057 0.012 0.077-0.044 0.147-0.092 0.155-0.217 0-0.060-0.041-0.125-0.118-0.157-0.045-0.020-0.102-0.020-0.151-0.016-0.016 0-0.033 0.044-0.049 0.068 0.024 0.012 0.049 0.028 0.073 0.040 0.029 0.012 0.077 0.012 0.086 0.028z"></path>
<path fill="#696969" style="fill: var(--color1, #696969)" d="M11.956 14.016c0.016-0.020 0.045-0.036 0.049-0.056 0.008-0.056 0.004-0.117 0.004-0.173s0.004-0.113-0.004-0.165c-0.004-0.024-0.037-0.040-0.053-0.060-0.020 0.020-0.053 0.040-0.057 0.060-0.004 0.113-0.004 0.225 0 0.342 0.004 0.016 0.041 0.032 0.061 0.052z"></path>
<path fill="#696969" style="fill: var(--color1, #696969)" d="M13.244 14.941c0.114-0.076 0.22-0.153 0.322-0.229 0.008-0.008 0-0.048-0.012-0.064-0.012-0.012-0.049-0.016-0.065-0.008-0.098 0.056-0.191 0.117-0.285 0.181-0.016 0.012-0.028 0.044-0.024 0.060 0.008 0.020 0.037 0.032 0.065 0.060z"></path>
<path fill="#696969" style="fill: var(--color1, #696969)" d="M12.992 13.019c0.065-0.024 0.118-0.044 0.167-0.072 0.020-0.012 0.016-0.052 0.025-0.084-0.029 0-0.061-0.008-0.090-0.004-0.037 0.004-0.069 0.024-0.106 0.028-0.045 0.004-0.098 0.004-0.086 0.064 0.008 0.028 0.057 0.044 0.090 0.068z"></path>
<path fill="#696969" style="fill: var(--color1, #696969)" d="M11.898 14.173c-0.004 0.020 0.033 0.044 0.053 0.068 0.024-0.020 0.045-0.036 0.086-0.068-0.037-0.036-0.057-0.056-0.082-0.076-0.020 0.024-0.053 0.048-0.057 0.076z"></path>
<path fill="#696969" style="fill: var(--color1, #696969)" d="M15.809 15.021c0.215-0.064 0.407-0.149 0.561-0.293 0.012-0.012 0.008-0.056-0.004-0.068s-0.053-0.012-0.073-0.004c-0.061 0.036-0.114 0.088-0.179 0.121-0.098 0.048-0.203 0.084-0.301 0.133-0.024 0.012-0.049 0.040-0.053 0.064 0.004 0.008 0.037 0.032 0.049 0.048z"></path>
<path fill="#696969" style="fill: var(--color1, #696969)" d="M16.431 11.448c0.033 0.008 0.081-0.004 0.114-0.024 0.13-0.084 0.139-0.237 0.012-0.342-0.024-0.020-0.081-0.040-0.102-0.024-0.053 0.036-0.012 0.072 0.020 0.105 0.016 0.016 0.037 0.036 0.045 0.060 0.024 0.060-0.020 0.121-0.094 0.1-0.024 0.020-0.053 0.036-0.077 0.056 0.033 0.020 0.053 0.060 0.081 0.068z"></path>
<path fill="#696969" style="fill: var(--color1, #696969)" d="M16.513 14.342c0.012 0.028 0.012 0.068 0.004 0.1-0.008 0.024-0.041 0.040-0.053 0.064s-0.004 0.056-0.008 0.084c0.029 0 0.069 0.008 0.081-0.004 0.049-0.052 0.090-0.113 0.143-0.185-0.049-0.068-0.086-0.137-0.139-0.181-0.028-0.024-0.094-0.016-0.138-0.012-0.020 0.004-0.033 0.044-0.045 0.068 0.024 0.012 0.049 0.028 0.077 0.036 0.025 0.008 0.069 0.008 0.077 0.028z"></path>
<path fill="#696969" style="fill: var(--color1, #696969)" d="M14.765 14.004c0.016-0.020 0.049-0.036 0.049-0.056 0.008-0.056 0.004-0.108 0.004-0.165s0.004-0.117-0.004-0.173c-0.004-0.024-0.033-0.040-0.053-0.064-0.020 0.020-0.057 0.040-0.057 0.060-0.004 0.113-0.004 0.225 0 0.342 0.004 0.020 0.041 0.036 0.061 0.056z"></path>
<path fill="#696969" style="fill: var(--color1, #696969)" d="M14.748 11.813c0.024-0.004 0.053-0.028 0.061-0.052 0.012-0.028 0.004-0.060 0.004-0.1 0 0 0.008-0.064 0-0.092-0.008-0.024-0.037-0.040-0.053-0.060-0.020 0.020-0.053 0.036-0.057 0.060-0.008 0.064-0.008 0.129 0 0.193 0 0.020 0.033 0.056 0.045 0.052z"></path>
<path fill="#696969" style="fill: var(--color1, #696969)" d="M15.814 13.027c0.065-0.032 0.122-0.052 0.171-0.089 0.012-0.008 0.004-0.052 0.008-0.076-0.024 0-0.053-0.008-0.073-0.004-0.037 0.008-0.069 0.028-0.102 0.032-0.049 0.004-0.106 0-0.098 0.064-0.004 0.028 0.053 0.048 0.094 0.072z"></path>
<path fill="#696969" style="fill: var(--color1, #696969)" d="M14.704 14.153c0.004 0.028 0.037 0.052 0.057 0.076 0.020-0.020 0.045-0.040 0.082-0.072-0.037-0.032-0.061-0.052-0.082-0.072-0.020 0.024-0.057 0.048-0.057 0.068z"></path>
<path fill="#696969" style="fill: var(--color1, #696969)" d="M7.476 13.614c0-0.004-0.004-0.008-0.004-0.008-0.024-0.008-0.053-0.020-0.077-0.028-0.008 0.028-0.028 0.060-0.020 0.076 0.102 0.173 0.195 0.35 0.313 0.514 0.093 0.129 0.098 0.237-0.033 0.338-0.024 0.020-0.049 0.040-0.065 0.064-0.012 0.016-0.016 0.052-0.008 0.064 0.016 0.016 0.049 0.028 0.073 0.020 0.098-0.024 0.24-0.209 0.24-0.33-0.008-0.016-0.012-0.052-0.033-0.084-0.13-0.209-0.26-0.418-0.386-0.627z"></path>
<path fill="#696969" style="fill: var(--color1, #696969)" d="M7.407 14.716c-0.024 0.004-0.049 0.024-0.073 0.040-0.256 0.137-0.516 0.205-0.805 0.105-0.024-0.008-0.057 0.016-0.085 0.024 0.020 0.028 0.033 0.068 0.057 0.076 0.098 0.028 0.199 0.048 0.301 0.072 0.248-0.012 0.463-0.105 0.768-0.225 0.020-0.012 0.020-0.048 0.028-0.076-0.028-0.008-0.061-0.020-0.089-0.016z"></path>
<path fill="#696969" style="fill: var(--color1, #696969)" d="M7.647 11.415c0.057 0.004 0.122 0.016 0.167-0.008 0.138-0.076 0.143-0.241 0.016-0.346-0.024-0.020-0.069-0.016-0.102-0.024 0.008 0.032 0.012 0.068 0.020 0.1 0.012 0.044 0.041 0.092 0.037 0.137-0.004 0.024-0.065 0.040-0.098 0.056-0.008-0.008-0.012-0.020-0.020-0.028-0.020 0.016-0.053 0.028-0.053 0.048-0.004 0.020 0.020 0.060 0.033 0.064z"></path>
<path fill="#696969" style="fill: var(--color1, #696969)" d="M7.203 13.16c-0.004-0.008-0.045-0.004-0.061 0.004-0.012 0.008-0.024 0.040-0.016 0.052 0.049 0.084 0.098 0.169 0.155 0.253 0.008 0.012 0.041 0.016 0.061 0.008 0.016-0.004 0.029-0.028 0.045-0.048-0.065-0.088-0.122-0.181-0.183-0.269z"></path>
<path fill="#696969" style="fill: var(--color1, #696969)" d="M5.049 16.086c0.268-0.032 0.48-0.257 0.488-0.527 0.008-0.281-0.203-0.514-0.5-0.555-0.207-0.028-0.557 0.125-0.593 0.374 0.106-0.121 0.24-0.133 0.382-0.109 0.154 0.024 0.236 0.109 0.24 0.237 0.004 0.141-0.085 0.257-0.228 0.289-0.146 0.028-0.285 0.012-0.398-0.105 0.024 0.241 0.358 0.422 0.61 0.394z"></path>
</symbol>
</defs>
</svg>
