<svg aria-hidden="true" style="position: absolute; width: 0; height: 0; overflow: hidden;" version="1.1" xmlns="http://www.w3.org/2000/svg" xmlns:xlink="http://www.w3.org/1999/xlink">
<defs>

<symbol id="phone" viewBox="0 0 32 32">
<path d="M22 20c-2 2-2 4-4 4s-4-2-6-4-4-4-4-6 2-2 4-4-4-8-6-8-6 6-6 6c0 4 4.109 12.109 8 16s12 8 16 8c0 0 6-4 6-6s-6-8-8-6z"></path>
</symbol>
<symbol id="line-2" viewBox="0 0 185 32">
<path stroke-linejoin="round" stroke-linecap="round" stroke-miterlimit="4" stroke-width="14.2222" d="M7.111 24.889l21.333-17.778 21.333 17.778 21.333-17.778 21.333 17.778 21.333-17.778 21.333 17.778 21.333-17.778 21.333 17.778"></path>
</symbol>
<symbol id="legs" viewBox="0 0 32 32">
<path  d="M0 0h32v32h-32v-32z"></path>
<path  d="M2.991 12.145c-0.65 2.861 4.626 13.807 10.273 11.313 2.081-1.040 1.821-3.511 1.821-3.511-0.26-2.081-1.803-1.98-2.211-4.291s1.425-6.103-2.991-7.802c-2.825-1.088-5.994 0.68-6.892 4.291z"></path>
<path fill="var(--color2, #000)" d="M29.009 17.862c0.65 2.861-4.626 13.807-10.273 11.313-2.081-1.040-1.821-3.511-1.821-3.511 0.26-2.081 1.803-1.98 2.211-4.291s-1.425-6.103 2.991-7.802c2.825-1.088 5.994 0.68 6.892 4.291z"></path>
<path fill="var(--color2, #000)" d="M12.485 4.904c-0.079 1.186-0.921 2.095-1.88 2.031s-1.673-1.077-1.594-2.262c0.079-1.186 0.921-2.095 1.88-2.031s1.673 1.077 1.594 2.262z"></path>
<path fill="var(--color2, #000)" d="M19.515 10.621c0.079 1.186 0.921 2.095 1.88 2.031s1.673-1.077 1.594-2.262c-0.079-1.186-0.921-2.095-1.88-2.031s-1.673 1.077-1.594 2.262z"></path>
<path fill="var(--color2, #000)" d="M8.174 5.080c0.096 0.867-0.395 1.632-1.096 1.709s-1.347-0.562-1.443-1.429c-0.096-0.867 0.395-1.632 1.096-1.709s1.347 0.562 1.443 1.429z"></path>
<path fill=" var(--color2, #000)" d="M23.826 10.798c-0.096 0.867 0.395 1.632 1.096 1.709s1.347-0.562 1.443-1.429c0.096-0.867-0.395-1.632-1.096-1.709s-1.347 0.562-1.443 1.429z"></path>
<path fill=" var(--color2, #000)" d="M5.061 6.090c0.28 0.587 0.122 1.247-0.353 1.473s-1.087-0.066-1.367-0.653c-0.28-0.587-0.122-1.247 0.353-1.473s1.087 0.066 1.367 0.653z"></path>
<path fill=" var(--color2, #000)" d="M26.939 11.807c-0.28 0.587-0.122 1.247 0.353 1.473s1.087-0.066 1.367-0.653c0.28-0.587 0.122-1.247-0.353-1.473s-1.087 0.066-1.367 0.653z"></path>
<path fill=" var(--color2, #000)" d="M2.661 7.752c0.466 0.314 0.638 0.874 0.384 1.251s-0.837 0.428-1.303 0.114c-0.466-0.314-0.638-0.874-0.384-1.251s0.837-0.428 1.303-0.114z"></path>
<path fill= "var(--color2, #000)" d="M29.339 13.469c-0.466 0.314-0.638 0.874-0.384 1.251s0.837 0.428 1.303 0.114c0.466-0.314 0.638-0.874 0.384-1.251s-0.837-0.428-1.303-0.114z"></path>
<path fill=" var(--color2, #000)" d="M1.207 10.26c0.492 0.108 0.82 0.518 0.732 0.916s-0.557 0.633-1.049 0.525c-0.492-0.108-0.82-0.518-0.732-0.916s0.557-0.633 1.049-0.525z"></path>
<path fill=" var(--color2, #000)" d="M30.793 15.977c-0.492 0.108-0.82 0.518-0.732 0.916s0.557 0.633 1.049 0.525c0.492-0.108 0.82-0.518 0.732-0.916s-0.557-0.633-1.049-0.525z"></path>
</symbol>
<symbol id="plus" viewBox="0 0 32 32">
<path d="M31 12h-11v-11c0-0.552-0.448-1-1-1h-6c-0.552 0-1 0.448-1 1v11h-11c-0.552 0-1 0.448-1 1v6c0 0.552 0.448 1 1 1h11v11c0 0.552 0.448 1 1 1h6c0.552 0 1-0.448 1-1v-11h11c0.552 0 1-0.448 1-1v-6c0-0.552-0.448-1-1-1z"></path>
</symbol>
</defs>
</svg>
