<svg aria-hidden="true" style="position: absolute; width: 0; height: 0; overflow: hidden;" version="1.1" xmlns="http://www.w3.org/2000/svg" xmlns:xlink="http://www.w3.org/1999/xlink">
<defs>

<symbol id="phone" viewBox="0 0 32 32">
<path d="M22 20c-2 2-2 4-4 4s-4-2-6-4-4-4-4-6 2-2 4-4-4-8-6-8-6 6-6 6c0 4 4.109 12.109 8 16s12 8 16 8c0 0 6-4 6-6s-6-8-8-6z"></path>
</symbol>
<symbol id="line-2" viewBox="0 0 185 32">
<path stroke-linejoin="round" stroke-linecap="round" stroke-miterlimit="4" stroke-width="14.2222" d="M7.111 24.889l21.333-17.778 21.333 17.778 21.333-17.778 21.333 17.778 21.333-17.778 21.333 17.778 21.333-17.778 21.333 17.778"></path>
</symbol>
<symbol id="legs" viewBox="0 0 32 32">
<path  d="M0 0h32v32h-32v-32z"></path>
<path  d="M2.991 12.145c-0.65 2.861 4.626 13.807 10.273 11.313 2.081-1.040 1.821-3.511 1.821-3.511-0.26-2.081-1.803-1.98-2.211-4.291s1.425-6.103-2.991-7.802c-2.825-1.088-5.994 0.68-6.892 4.291z"></path>
<path fill="var(--color2, #000)" d="M29.009 17.862c0.65 2.861-4.626 13.807-10.273 11.313-2.081-1.040-1.821-3.511-1.821-3.511 0.26-2.081 1.803-1.98 2.211-4.291s-1.425-6.103 2.991-7.802c2.825-1.088 5.994 0.68 6.892 4.291z"></path>
<path fill="var(--color2, #000)" d="M12.485 4.904c-0.079 1.186-0.921 2.095-1.88 2.031s-1.673-1.077-1.594-2.262c0.079-1.186 0.921-2.095 1.88-2.031s1.673 1.077 1.594 2.262z"></path>
<path fill="var(--color2, #000)" d="M19.515 10.621c0.079 1.186 0.921 2.095 1.88 2.031s1.673-1.077 1.594-2.262c-0.079-1.186-0.921-2.095-1.88-2.031s-1.673 1.077-1.594 2.262z"></path>
<path fill="var(--color2, #000)" d="M8.174 5.080c0.096 0.867-0.395 1.632-1.096 1.709s-1.347-0.562-1.443-1.429c-0.096-0.867 0.395-1.632 1.096-1.709s1.347 0.562 1.443 1.429z"></path>
<path fill=" var(--color2, #000)" d="M23.826 10.798c-0.096 0.867 0.395 1.632 1.096 1.709s1.347-0.562 1.443-1.429c0.096-0.867-0.395-1.632-1.096-1.709s-1.347 0.562-1.443 1.429z"></path>
<path fill=" var(--color2, #000)" d="M5.061 6.090c0.28 0.587 0.122 1.247-0.353 1.473s-1.087-0.066-1.367-0.653c-0.28-0.587-0.122-1.247 0.353-1.473s1.087 0.066 1.367 0.653z"></path>
<path fill=" var(--color2, #000)" d="M26.939 11.807c-0.28 0.587-0.122 1.247 0.353 1.473s1.087-0.066 1.367-0.653c0.28-0.587 0.122-1.247-0.353-1.473s-1.087 0.066-1.367 0.653z"></path>
<path fill=" var(--color2, #000)" d="M2.661 7.752c0.466 0.314 0.638 0.874 0.384 1.251s-0.837 0.428-1.303 0.114c-0.466-0.314-0.638-0.874-0.384-1.251s0.837-0.428 1.303-0.114z"></path>
<path fill= "var(--color2, #000)" d="M29.339 13.469c-0.466 0.314-0.638 0.874-0.384 1.251s0.837 0.428 1.303 0.114c0.466-0.314 0.638-0.874 0.384-1.251s-0.837-0.428-1.303-0.114z"></path>
<path fill=" var(--color2, #000)" d="M1.207 10.26c0.492 0.108 0.82 0.518 0.732 0.916s-0.557 0.633-1.049 0.525c-0.492-0.108-0.82-0.518-0.732-0.916s0.557-0.633 1.049-0.525z"></path>
<path fill=" var(--color2, #000)" d="M30.793 15.977c-0.492 0.108-0.82 0.518-0.732 0.916s0.557 0.633 1.049 0.525c0.492-0.108 0.82-0.518 0.732-0.916s-0.557-0.633-1.049-0.525z"></path>
</symbol>
<symbol id="plus" viewBox="0 0 32 32">
<path d="M31 12h-11v-11c0-0.552-0.448-1-1-1h-6c-0.552 0-1 0.448-1 1v11h-11c-0.552 0-1 0.448-1 1v6c0 0.552 0.448 1 1 1h11v11c0 0.552 0.448 1 1 1h6c0.552 0 1-0.448 1-1v-11h11c0.552 0 1-0.448 1-1v-6c0-0.552-0.448-1-1-1z"></path>
</symbol>
<symbol id="icon-arrow-right" viewBox="0 0 32 32">
<path d="M19.414 27.414l10-10c0.781-0.781 0.781-2.047 0-2.828l-10-10c-0.781-0.781-2.047-0.781-2.828 0s-0.781 2.047 0 2.828l6.586 6.586h-19.172c-1.105 0-2 0.895-2 2s0.895 2 2 2h19.172l-6.586 6.586c-0.39 0.39-0.586 0.902-0.586 1.414s0.195 1.024 0.586 1.414c0.781 0.781 2.047 0.781 2.828 0z"></path>
</symbol>
<symbol id="icon-arrow-left" viewBox="0 0 32 32">
<path d="M12.586 27.414l-10-10c-0.781-0.781-0.781-2.047 0-2.828l10-10c0.781-0.781 2.047-0.781 2.828 0s0.781 2.047 0 2.828l-6.586 6.586h19.172c1.105 0 2 0.895 2 2s-0.895 2-2 2h-19.172l6.586 6.586c0.39 0.39 0.586 0.902 0.586 1.414s-0.195 1.024-0.586 1.414c-0.781 0.781-2.047 0.781-2.828 0z"></path>
</symbol>
<symbol id="instagram" viewBox="0 0 32 32">
<path d="M31.969 9.408c-0.075-1.7-0.35-2.869-0.744-3.882-0.406-1.075-1.031-2.038-1.85-2.838-0.8-0.813-1.769-1.444-2.832-1.844-1.019-0.394-2.182-0.669-3.882-0.744-1.713-0.081-2.257-0.1-6.601-0.1s-4.888 0.019-6.595 0.094c-1.7 0.075-2.869 0.35-3.882 0.744-1.075 0.406-2.038 1.031-2.838 1.85-0.813 0.8-1.444 1.769-1.844 2.832-0.394 1.019-0.669 2.182-0.744 3.882-0.081 1.713-0.1 2.257-0.1 6.601s0.019 4.888 0.094 6.595c0.075 1.7 0.35 2.869 0.744 3.882 0.406 1.075 1.038 2.038 1.85 2.838 0.8 0.813 1.769 1.444 2.832 1.844 1.019 0.394 2.182 0.669 3.882 0.744 1.706 0.075 2.25 0.094 6.595 0.094s4.888-0.019 6.595-0.094c1.7-0.075 2.869-0.35 3.882-0.744 2.151-0.832 3.851-2.532 4.682-4.682 0.394-1.019 0.669-2.182 0.744-3.882 0.075-1.707 0.094-2.251 0.094-6.595s-0.006-4.888-0.081-6.595zM29.087 22.473c-0.069 1.563-0.331 2.407-0.55 2.969-0.538 1.394-1.644 2.5-3.038 3.038-0.563 0.219-1.413 0.481-2.969 0.55-1.688 0.075-2.194 0.094-6.464 0.094s-4.782-0.019-6.464-0.094c-1.563-0.069-2.407-0.331-2.969-0.55-0.694-0.256-1.325-0.663-1.838-1.194-0.531-0.519-0.938-1.144-1.194-1.838-0.219-0.563-0.481-1.413-0.55-2.969-0.075-1.688-0.094-2.194-0.094-6.464s0.019-4.782 0.094-6.464c0.069-1.563 0.331-2.407 0.55-2.969 0.256-0.694 0.663-1.325 1.2-1.838 0.519-0.531 1.144-0.938 1.838-1.194 0.563-0.219 1.413-0.481 2.969-0.55 1.688-0.075 2.194-0.094 6.464-0.094 4.276 0 4.782 0.019 6.464 0.094 1.563 0.069 2.407 0.331 2.969 0.55 0.694 0.256 1.325 0.662 1.838 1.194 0.531 0.519 0.938 1.144 1.194 1.838 0.219 0.563 0.481 1.413 0.55 2.969 0.075 1.688 0.094 2.194 0.094 6.464s-0.019 4.77-0.094 6.458z"></path>
<path d="M16.059 7.783c-4.538 0-8.22 3.682-8.22 8.22s3.682 8.22 8.22 8.22c4.539 0 8.22-3.682 8.22-8.22s-3.682-8.22-8.22-8.22zM16.059 21.335c-2.944 0-5.332-2.388-5.332-5.332s2.388-5.332 5.332-5.332c2.944 0 5.332 2.388 5.332 5.332s-2.388 5.332-5.332 5.332z"></path>
<path d="M26.524 7.458c0 1.060-0.859 1.919-1.919 1.919s-1.919-0.859-1.919-1.919c0-1.060 0.859-1.919 1.919-1.919s1.919 0.859 1.919 1.919z"></path>
</symbol>
<symbol id="facebook" viewBox="0 0 32 32">
<path d="M21.329 5.313h2.921v-5.088c-0.504-0.069-2.237-0.225-4.256-0.225-4.212 0-7.097 2.649-7.097 7.519v4.481h-4.648v5.688h4.648v14.312h5.699v-14.311h4.46l0.708-5.688h-5.169v-3.919c0.001-1.644 0.444-2.769 2.735-2.769z"></path>
</symbol>
<symbol id="twitter" viewBox="0 0 32 32">
<path d="M32 7.075c-1.175 0.525-2.444 0.875-3.769 1.031 1.356-0.813 2.394-2.1 2.887-3.631-1.269 0.75-2.675 1.3-4.169 1.594-1.2-1.275-2.906-2.069-4.794-2.069-3.625 0-6.563 2.938-6.563 6.563 0 0.512 0.056 1.012 0.169 1.494-5.456-0.275-10.294-2.888-13.531-6.862-0.563 0.969-0.887 2.1-0.887 3.3 0 2.275 1.156 4.287 2.919 5.463-1.075-0.031-2.087-0.331-2.975-0.819 0 0.025 0 0.056 0 0.081 0 3.181 2.263 5.838 5.269 6.437-0.55 0.15-1.131 0.231-1.731 0.231-0.425 0-0.831-0.044-1.237-0.119 0.838 2.606 3.263 4.506 6.131 4.563-2.25 1.762-5.075 2.813-8.156 2.813-0.531 0-1.050-0.031-1.569-0.094 2.913 1.869 6.362 2.95 10.069 2.95 12.075 0 18.681-10.006 18.681-18.681 0-0.287-0.006-0.569-0.019-0.85 1.281-0.919 2.394-2.075 3.275-3.394z"></path>
</symbol>
<symbol id="youtube" viewBox="0 0 32 32">
<path d="M31.681 9.6c0 0-0.313-2.206-1.275-3.175-1.219-1.275-2.581-1.281-3.206-1.356-4.475-0.325-11.194-0.325-11.194-0.325h-0.012c0 0-6.719 0-11.194 0.325-0.625 0.075-1.987 0.081-3.206 1.356-0.963 0.969-1.269 3.175-1.269 3.175s-0.319 2.588-0.319 5.181v2.425c0 2.587 0.319 5.181 0.319 5.181s0.313 2.206 1.269 3.175c1.219 1.275 2.819 1.231 3.531 1.369 2.563 0.244 10.881 0.319 10.881 0.319s6.725-0.012 11.2-0.331c0.625-0.075 1.988-0.081 3.206-1.356 0.962-0.969 1.275-3.175 1.275-3.175s0.319-2.587 0.319-5.181v-2.425c-0.006-2.588-0.325-5.181-0.325-5.181zM12.694 20.15v-8.994l8.644 4.513-8.644 4.481z"></path>
</symbol>
</defs>
</svg>
